<svg width="286" height="19" viewBox="0 0 286 19" fill="none" xmlns="http://www.w3.org/2000/svg">
<rect x="0.19043" y="0.148804" width="18" height="18" rx="1" fill="#E3B873"/>
<path d="M14.0366 5.68726L8.32504 11.3988L5.72888 8.80264" stroke="white" stroke-width="1.5"/>
<path d="M28.028 6.04052H29.176V15.9105H28.028V6.04052ZM37.8234 8.92452C38.6914 8.92452 39.3354 9.14852 39.7554 9.59652C40.1847 10.0352 40.3994 10.7072 40.3994 11.6125V15.9105H39.2934V14.7485C39.1161 15.1499 38.8454 15.4625 38.4814 15.6865C38.1174 15.9012 37.6974 16.0085 37.2214 16.0085C36.7827 16.0085 36.3767 15.9199 36.0034 15.7425C35.6394 15.5652 35.3501 15.3179 35.1354 15.0005C34.9207 14.6832 34.8134 14.3332 34.8134 13.9505C34.8134 13.4372 34.9441 13.0405 35.2054 12.7605C35.4667 12.4712 35.8961 12.2659 36.4934 12.1445C37.0907 12.0139 37.9214 11.9485 38.9854 11.9485H39.2934V11.4865C39.2934 10.9172 39.1767 10.5065 38.9434 10.2545C38.7101 9.99319 38.3321 9.86252 37.8094 9.86252C37.0254 9.86252 36.2461 10.1052 35.4714 10.5905L35.0934 9.76452C35.4481 9.51252 35.8727 9.31186 36.3674 9.16252C36.8714 9.00386 37.3567 8.92452 37.8234 8.92452ZM37.3754 15.1125C37.9354 15.1125 38.3927 14.9259 38.7474 14.5525C39.1114 14.1699 39.2934 13.6799 39.2934 13.0825V12.6765H39.0414C38.2201 12.6765 37.5947 12.7139 37.1654 12.7885C36.7361 12.8539 36.4281 12.9705 36.2414 13.1385C36.0641 13.2972 35.9754 13.5352 35.9754 13.8525C35.9754 14.2165 36.1061 14.5199 36.3674 14.7625C36.6381 14.9959 36.9741 15.1125 37.3754 15.1125ZM48.5792 9.09252V15.4485C48.5792 16.4659 48.3179 17.2312 47.7952 17.7445C47.2726 18.2672 46.4979 18.5285 45.4712 18.5285C44.2766 18.5285 43.2732 18.2205 42.4612 17.6045L42.8392 16.7645C43.2966 17.0632 43.7259 17.2779 44.1272 17.4085C44.5286 17.5392 44.9766 17.6045 45.4712 17.6045C46.1246 17.6045 46.6192 17.4272 46.9552 17.0725C47.2912 16.7272 47.4592 16.2185 47.4592 15.5465V14.3425C47.2632 14.7812 46.9599 15.1172 46.5492 15.3505C46.1479 15.5839 45.6719 15.7005 45.1212 15.7005C44.5239 15.7005 43.9919 15.5605 43.5252 15.2805C43.0679 15.0005 42.7086 14.6039 42.4472 14.0905C42.1952 13.5772 42.0692 12.9845 42.0692 12.3125C42.0692 11.6405 42.1952 11.0479 42.4472 10.5345C42.7086 10.0212 43.0679 9.62452 43.5252 9.34452C43.9919 9.06452 44.5239 8.92452 45.1212 8.92452C45.6626 8.92452 46.1339 9.04119 46.5352 9.27452C46.9366 9.50786 47.2399 9.83919 47.4452 10.2685V9.09252H48.5792ZM45.3452 14.7625C45.9986 14.7625 46.5119 14.5479 46.8852 14.1185C47.2586 13.6799 47.4452 13.0779 47.4452 12.3125C47.4452 11.5565 47.2586 10.9639 46.8852 10.5345C46.5212 10.0959 46.0079 9.87652 45.3452 9.87652C44.6826 9.87652 44.1599 10.0959 43.7772 10.5345C43.4039 10.9639 43.2172 11.5565 43.2172 12.3125C43.2172 13.0779 43.4039 13.6799 43.7772 14.1185C44.1599 14.5479 44.6826 14.7625 45.3452 14.7625ZM54.5424 9.90452L53.8004 9.97452C53.1004 10.0399 52.5917 10.2592 52.2744 10.6325C51.9664 11.0059 51.8124 11.4679 51.8124 12.0185V15.9105H50.6784V9.09252H51.7844V10.2825C52.167 9.48919 52.9184 9.04586 54.0384 8.95252L54.4444 8.92452L54.5424 9.90452ZM61.1892 12.6765H56.2052C56.2425 13.4699 56.4572 14.0719 56.8492 14.4825C57.2412 14.8839 57.7965 15.0845 58.5152 15.0845C59.3085 15.0845 60.0365 14.8139 60.6992 14.2725L61.0772 15.0985C60.7785 15.3785 60.3959 15.6025 59.9292 15.7705C59.4625 15.9292 58.9865 16.0085 58.5012 16.0085C57.4372 16.0085 56.5972 15.6959 55.9812 15.0705C55.3745 14.4452 55.0712 13.5819 55.0712 12.4805C55.0712 11.7805 55.2065 11.1645 55.4772 10.6325C55.7479 10.0912 56.1259 9.67119 56.6112 9.37252C57.1059 9.07386 57.6659 8.92452 58.2912 8.92452C59.1965 8.92452 59.9059 9.22319 60.4192 9.82052C60.9325 10.4085 61.1892 11.2205 61.1892 12.2565V12.6765ZM58.3052 9.80652C57.7079 9.80652 57.2272 9.99319 56.8632 10.3665C56.5085 10.7399 56.2985 11.2672 56.2332 11.9485H60.1952C60.1765 11.2579 60.0039 10.7305 59.6772 10.3665C59.3505 9.99319 58.8932 9.80652 58.3052 9.80652ZM68.572 12.6765H63.588C63.6253 13.4699 63.84 14.0719 64.232 14.4825C64.624 14.8839 65.1793 15.0845 65.898 15.0845C66.6913 15.0845 67.4193 14.8139 68.082 14.2725L68.46 15.0985C68.1613 15.3785 67.7787 15.6025 67.312 15.7705C66.8453 15.9292 66.3693 16.0085 65.884 16.0085C64.82 16.0085 63.98 15.6959 63.364 15.0705C62.7573 14.4452 62.454 13.5819 62.454 12.4805C62.454 11.7805 62.5893 11.1645 62.86 10.6325C63.1307 10.0912 63.5087 9.67119 63.994 9.37252C64.4887 9.07386 65.0487 8.92452 65.674 8.92452C66.5793 8.92452 67.2887 9.22319 67.802 9.82052C68.3153 10.4085 68.572 11.2205 68.572 12.2565V12.6765ZM65.688 9.80652C65.0907 9.80652 64.61 9.99319 64.246 10.3665C63.8913 10.7399 63.6813 11.2672 63.616 11.9485H67.578C67.5593 11.2579 67.3867 10.7305 67.06 10.3665C66.7333 9.99319 66.276 9.80652 65.688 9.80652ZM76.8482 15.0985C77.0535 15.0985 77.2589 15.0845 77.4642 15.0565L77.4082 15.9525C77.1935 15.9899 76.9602 16.0085 76.7082 16.0085C75.8869 16.0085 75.2662 15.7939 74.8462 15.3645C74.4355 14.9352 74.2302 14.3379 74.2302 13.5725V9.98852H72.9002V9.09252H74.2302V7.02052H75.3642V9.09252H77.2962V9.98852H75.3642V13.4885C75.3642 14.5619 75.8589 15.0985 76.8482 15.0985ZM81.438 16.0085C80.794 16.0085 80.2247 15.8639 79.73 15.5745C79.2447 15.2852 78.8667 14.8745 78.596 14.3425C78.3347 13.8012 78.204 13.1759 78.204 12.4665C78.204 11.7572 78.3347 11.1365 78.596 10.6045C78.8667 10.0632 79.2447 9.64786 79.73 9.35852C80.2247 9.06919 80.794 8.92452 81.438 8.92452C82.082 8.92452 82.6513 9.06919 83.146 9.35852C83.6407 9.64786 84.0187 10.0632 84.28 10.6045C84.5507 11.1365 84.686 11.7572 84.686 12.4665C84.686 13.1759 84.5507 13.8012 84.28 14.3425C84.0187 14.8745 83.6407 15.2852 83.146 15.5745C82.6513 15.8639 82.082 16.0085 81.438 16.0085ZM81.438 15.0705C82.11 15.0705 82.6233 14.8512 82.978 14.4125C83.342 13.9645 83.524 13.3159 83.524 12.4665C83.524 11.6359 83.342 10.9965 82.978 10.5485C82.614 10.0912 82.1007 9.86252 81.438 9.86252C80.7753 9.86252 80.262 10.0912 79.898 10.5485C79.534 10.9965 79.352 11.6359 79.352 12.4665C79.352 13.3065 79.5293 13.9505 79.884 14.3985C80.248 14.8465 80.766 15.0705 81.438 15.0705ZM92.981 15.0985C93.1863 15.0985 93.3917 15.0845 93.597 15.0565L93.541 15.9525C93.3263 15.9899 93.093 16.0085 92.841 16.0085C92.0197 16.0085 91.399 15.7939 90.979 15.3645C90.5683 14.9352 90.363 14.3379 90.363 13.5725V9.98852H89.033V9.09252H90.363V7.02052H91.497V9.09252H93.429V9.98852H91.497V13.4885C91.497 14.5619 91.9917 15.0985 92.981 15.0985ZM98.1728 8.92452C99.8061 8.92452 100.623 9.82519 100.623 11.6265V15.9105H99.4888V11.6965C99.4888 11.0619 99.3628 10.5999 99.1108 10.3105C98.8681 10.0212 98.4761 9.87652 97.9348 9.87652C97.3095 9.87652 96.8101 10.0679 96.4368 10.4505C96.0635 10.8332 95.8768 11.3512 95.8768 12.0045V15.9105H94.7428V6.04052H95.8768V10.1845C96.1008 9.77386 96.4088 9.46119 96.8008 9.24652C97.2021 9.03186 97.6595 8.92452 98.1728 8.92452ZM108.412 12.6765H103.428C103.465 13.4699 103.68 14.0719 104.072 14.4825C104.464 14.8839 105.019 15.0845 105.738 15.0845C106.531 15.0845 107.259 14.8139 107.922 14.2725L108.3 15.0985C108.001 15.3785 107.619 15.6025 107.152 15.7705C106.685 15.9292 106.209 16.0085 105.724 16.0085C104.66 16.0085 103.82 15.6959 103.204 15.0705C102.597 14.4452 102.294 13.5819 102.294 12.4805C102.294 11.7805 102.429 11.1645 102.7 10.6325C102.971 10.0912 103.349 9.67119 103.834 9.37252C104.329 9.07386 104.889 8.92452 105.514 8.92452C106.419 8.92452 107.129 9.22319 107.642 9.82052C108.155 10.4085 108.412 11.2205 108.412 12.2565V12.6765ZM105.528 9.80652C104.931 9.80652 104.45 9.99319 104.086 10.3665C103.731 10.7399 103.521 11.2672 103.456 11.9485H107.418C107.399 11.2579 107.227 10.7305 106.9 10.3665C106.573 9.99319 106.116 9.80652 105.528 9.80652ZM117.122 8.92452C117.719 8.92452 118.247 9.07386 118.704 9.37252C119.161 9.67119 119.516 10.0912 119.768 10.6325C120.02 11.1645 120.146 11.7852 120.146 12.4945C120.146 13.2039 120.02 13.8245 119.768 14.3565C119.516 14.8792 119.161 15.2852 118.704 15.5745C118.256 15.8639 117.729 16.0085 117.122 16.0085C116.59 16.0085 116.123 15.8919 115.722 15.6585C115.33 15.4252 115.031 15.0939 114.826 14.6645V18.4305H113.692V9.09252H114.826V10.2685C115.031 9.83919 115.33 9.50786 115.722 9.27452C116.123 9.04119 116.59 8.92452 117.122 8.92452ZM116.898 15.0705C117.561 15.0705 118.074 14.8465 118.438 14.3985C118.802 13.9505 118.984 13.3159 118.984 12.4945C118.984 11.6732 118.802 11.0339 118.438 10.5765C118.074 10.1099 117.561 9.87652 116.898 9.87652C116.235 9.87652 115.722 10.1005 115.358 10.5485C115.003 10.9965 114.826 11.6359 114.826 12.4665C114.826 13.2972 115.003 13.9412 115.358 14.3985C115.722 14.8465 116.235 15.0705 116.898 15.0705ZM125.704 9.90452L124.962 9.97452C124.262 10.0399 123.754 10.2592 123.436 10.6325C123.128 11.0059 122.974 11.4679 122.974 12.0185V15.9105H121.84V9.09252H122.946V10.2825C123.329 9.48919 124.08 9.04586 125.2 8.95252L125.606 8.92452L125.704 9.90452ZM129.467 16.0085C128.823 16.0085 128.254 15.8639 127.759 15.5745C127.274 15.2852 126.896 14.8745 126.625 14.3425C126.364 13.8012 126.233 13.1759 126.233 12.4665C126.233 11.7572 126.364 11.1365 126.625 10.6045C126.896 10.0632 127.274 9.64786 127.759 9.35852C128.254 9.06919 128.823 8.92452 129.467 8.92452C130.111 8.92452 130.681 9.06919 131.175 9.35852C131.67 9.64786 132.048 10.0632 132.309 10.6045C132.58 11.1365 132.715 11.7572 132.715 12.4665C132.715 13.1759 132.58 13.8012 132.309 14.3425C132.048 14.8745 131.67 15.2852 131.175 15.5745C130.681 15.8639 130.111 16.0085 129.467 16.0085ZM129.467 15.0705C130.139 15.0705 130.653 14.8512 131.007 14.4125C131.371 13.9645 131.553 13.3159 131.553 12.4665C131.553 11.6359 131.371 10.9965 131.007 10.5485C130.643 10.0912 130.13 9.86252 129.467 9.86252C128.805 9.86252 128.291 10.0912 127.927 10.5485C127.563 10.9965 127.381 11.6359 127.381 12.4665C127.381 13.3065 127.559 13.9505 127.913 14.3985C128.277 14.8465 128.795 15.0705 129.467 15.0705ZM137.289 16.0085C136.617 16.0085 136.034 15.8639 135.539 15.5745C135.044 15.2852 134.662 14.8792 134.391 14.3565C134.13 13.8245 133.999 13.2039 133.999 12.4945C133.999 11.7852 134.134 11.1645 134.405 10.6325C134.685 10.0912 135.072 9.67119 135.567 9.37252C136.071 9.07386 136.659 8.92452 137.331 8.92452C137.788 8.92452 138.236 9.00852 138.675 9.17652C139.114 9.33519 139.468 9.54986 139.739 9.82052L139.361 10.6605C138.717 10.1379 138.064 9.87652 137.401 9.87652C136.701 9.87652 136.155 10.1052 135.763 10.5625C135.371 11.0199 135.175 11.6639 135.175 12.4945C135.175 13.3159 135.371 13.9505 135.763 14.3985C136.155 14.8465 136.701 15.0705 137.401 15.0705C138.064 15.0705 138.717 14.8092 139.361 14.2865L139.739 15.1265C139.45 15.3972 139.086 15.6119 138.647 15.7705C138.208 15.9292 137.756 16.0085 137.289 16.0085ZM146.816 12.6765H141.832C141.869 13.4699 142.084 14.0719 142.476 14.4825C142.868 14.8839 143.423 15.0845 144.142 15.0845C144.935 15.0845 145.663 14.8139 146.326 14.2725L146.704 15.0985C146.405 15.3785 146.023 15.6025 145.556 15.7705C145.089 15.9292 144.613 16.0085 144.128 16.0085C143.064 16.0085 142.224 15.6959 141.608 15.0705C141.001 14.4452 140.698 13.5819 140.698 12.4805C140.698 11.7805 140.833 11.1645 141.104 10.6325C141.375 10.0912 141.753 9.67119 142.238 9.37252C142.733 9.07386 143.293 8.92452 143.918 8.92452C144.823 8.92452 145.533 9.22319 146.046 9.82052C146.559 10.4085 146.816 11.2205 146.816 12.2565V12.6765ZM143.932 9.80652C143.335 9.80652 142.854 9.99319 142.49 10.3665C142.135 10.7399 141.925 11.2672 141.86 11.9485H145.822C145.803 11.2579 145.631 10.7305 145.304 10.3665C144.977 9.99319 144.52 9.80652 143.932 9.80652ZM150.797 16.0085C149.649 16.0085 148.739 15.7145 148.067 15.1265L148.445 14.2865C148.809 14.5759 149.178 14.7859 149.551 14.9165C149.934 15.0379 150.363 15.0985 150.839 15.0985C151.343 15.0985 151.726 15.0145 151.987 14.8465C152.258 14.6692 152.393 14.4172 152.393 14.0905C152.393 13.8199 152.304 13.6052 152.127 13.4465C151.95 13.2879 151.656 13.1619 151.245 13.0685L150.097 12.8025C149.518 12.6719 149.075 12.4479 148.767 12.1305C148.459 11.8132 148.305 11.4212 148.305 10.9545C148.305 10.3479 148.543 9.85786 149.019 9.48452C149.495 9.11119 150.13 8.92452 150.923 8.92452C151.399 8.92452 151.852 9.00386 152.281 9.16252C152.71 9.31186 153.07 9.53119 153.359 9.82052L152.981 10.6465C152.356 10.1145 151.67 9.84852 150.923 9.84852C150.447 9.84852 150.074 9.94186 149.803 10.1285C149.542 10.3059 149.411 10.5579 149.411 10.8845C149.411 11.1552 149.49 11.3745 149.649 11.5425C149.817 11.7012 150.083 11.8225 150.447 11.9065L151.609 12.1865C152.244 12.3359 152.715 12.5645 153.023 12.8725C153.331 13.1712 153.485 13.5632 153.485 14.0485C153.485 14.6459 153.242 15.1219 152.757 15.4765C152.281 15.8312 151.628 16.0085 150.797 16.0085ZM157.524 16.0085C156.376 16.0085 155.466 15.7145 154.794 15.1265L155.172 14.2865C155.536 14.5759 155.904 14.7859 156.278 14.9165C156.66 15.0379 157.09 15.0985 157.566 15.0985C158.07 15.0985 158.452 15.0145 158.714 14.8465C158.984 14.6692 159.12 14.4172 159.12 14.0905C159.12 13.8199 159.031 13.6052 158.854 13.4465C158.676 13.2879 158.382 13.1619 157.972 13.0685L156.824 12.8025C156.245 12.6719 155.802 12.4479 155.494 12.1305C155.186 11.8132 155.032 11.4212 155.032 10.9545C155.032 10.3479 155.27 9.85786 155.746 9.48452C156.222 9.11119 156.856 8.92452 157.65 8.92452C158.126 8.92452 158.578 9.00386 159.008 9.16252C159.437 9.31186 159.796 9.53119 160.086 9.82052L159.708 10.6465C159.082 10.1145 158.396 9.84852 157.65 9.84852C157.174 9.84852 156.8 9.94186 156.53 10.1285C156.268 10.3059 156.138 10.5579 156.138 10.8845C156.138 11.1552 156.217 11.3745 156.376 11.5425C156.544 11.7012 156.81 11.8225 157.174 11.9065L158.336 12.1865C158.97 12.3359 159.442 12.5645 159.75 12.8725C160.058 13.1712 160.212 13.5632 160.212 14.0485C160.212 14.6459 159.969 15.1219 159.484 15.4765C159.008 15.8312 158.354 16.0085 157.524 16.0085ZM161.94 9.09252H163.074V15.9105H161.94V9.09252ZM163.2 6.13852V7.41252H161.828V6.13852H163.2ZM168.624 8.92452C170.257 8.92452 171.074 9.82519 171.074 11.6265V15.9105H169.94V11.6965C169.94 11.0619 169.814 10.5999 169.562 10.3105C169.319 10.0212 168.927 9.87652 168.386 9.87652C167.761 9.87652 167.261 10.0679 166.888 10.4505C166.515 10.8332 166.328 11.3512 166.328 12.0045V15.9105H165.194V9.09252H166.314V10.2125C166.538 9.79252 166.851 9.47519 167.252 9.26052C167.653 9.03652 168.111 8.92452 168.624 8.92452ZM179.255 9.09252V15.4485C179.255 16.4659 178.994 17.2312 178.471 17.7445C177.948 18.2672 177.174 18.5285 176.147 18.5285C174.952 18.5285 173.949 18.2205 173.137 17.6045L173.515 16.7645C173.972 17.0632 174.402 17.2779 174.803 17.4085C175.204 17.5392 175.652 17.6045 176.147 17.6045C176.8 17.6045 177.295 17.4272 177.631 17.0725C177.967 16.7272 178.135 16.2185 178.135 15.5465V14.3425C177.939 14.7812 177.636 15.1172 177.225 15.3505C176.824 15.5839 176.348 15.7005 175.797 15.7005C175.2 15.7005 174.668 15.5605 174.201 15.2805C173.744 15.0005 173.384 14.6039 173.123 14.0905C172.871 13.5772 172.745 12.9845 172.745 12.3125C172.745 11.6405 172.871 11.0479 173.123 10.5345C173.384 10.0212 173.744 9.62452 174.201 9.34452C174.668 9.06452 175.2 8.92452 175.797 8.92452C176.338 8.92452 176.81 9.04119 177.211 9.27452C177.612 9.50786 177.916 9.83919 178.121 10.2685V9.09252H179.255ZM176.021 14.7625C176.674 14.7625 177.188 14.5479 177.561 14.1185C177.934 13.6799 178.121 13.0779 178.121 12.3125C178.121 11.5565 177.934 10.9639 177.561 10.5345C177.197 10.0959 176.684 9.87652 176.021 9.87652C175.358 9.87652 174.836 10.0959 174.453 10.5345C174.08 10.9639 173.893 11.5565 173.893 12.3125C173.893 13.0779 174.08 13.6799 174.453 14.1185C174.836 14.5479 175.358 14.7625 176.021 14.7625ZM187.792 16.0085C187.148 16.0085 186.578 15.8639 186.084 15.5745C185.598 15.2852 185.22 14.8745 184.95 14.3425C184.688 13.8012 184.558 13.1759 184.558 12.4665C184.558 11.7572 184.688 11.1365 184.95 10.6045C185.22 10.0632 185.598 9.64786 186.084 9.35852C186.578 9.06919 187.148 8.92452 187.792 8.92452C188.436 8.92452 189.005 9.06919 189.5 9.35852C189.994 9.64786 190.372 10.0632 190.634 10.6045C190.904 11.1365 191.04 11.7572 191.04 12.4665C191.04 13.1759 190.904 13.8012 190.634 14.3425C190.372 14.8745 189.994 15.2852 189.5 15.5745C189.005 15.8639 188.436 16.0085 187.792 16.0085ZM187.792 15.0705C188.464 15.0705 188.977 14.8512 189.332 14.4125C189.696 13.9645 189.878 13.3159 189.878 12.4665C189.878 11.6359 189.696 10.9965 189.332 10.5485C188.968 10.0912 188.454 9.86252 187.792 9.86252C187.129 9.86252 186.616 10.0912 186.252 10.5485C185.888 10.9965 185.706 11.6359 185.706 12.4665C185.706 13.3065 185.883 13.9505 186.238 14.3985C186.602 14.8465 187.12 15.0705 187.792 15.0705ZM194.227 9.09252H196.159V9.98852H194.227V15.9105H193.093V9.98852H191.763V9.09252H193.093V8.86852C193.093 7.96319 193.317 7.27719 193.765 6.81052C194.223 6.34386 194.923 6.08252 195.865 6.02652L196.425 5.99852L196.509 6.88052L195.865 6.92252C195.296 6.95986 194.881 7.12319 194.619 7.41252C194.358 7.69252 194.227 8.12652 194.227 8.71452V9.09252ZM204.349 8.92452C204.946 8.92452 205.473 9.07386 205.931 9.37252C206.388 9.67119 206.743 10.0912 206.995 10.6325C207.247 11.1645 207.373 11.7852 207.373 12.4945C207.373 13.2039 207.247 13.8245 206.995 14.3565C206.743 14.8792 206.388 15.2852 205.931 15.5745C205.483 15.8639 204.955 16.0085 204.349 16.0085C203.817 16.0085 203.35 15.8919 202.949 15.6585C202.557 15.4252 202.258 15.0939 202.053 14.6645V18.4305H200.919V9.09252H202.053V10.2685C202.258 9.83919 202.557 9.50786 202.949 9.27452C203.35 9.04119 203.817 8.92452 204.349 8.92452ZM204.125 15.0705C204.787 15.0705 205.301 14.8465 205.665 14.3985C206.029 13.9505 206.211 13.3159 206.211 12.4945C206.211 11.6732 206.029 11.0339 205.665 10.5765C205.301 10.1099 204.787 9.87652 204.125 9.87652C203.462 9.87652 202.949 10.1005 202.585 10.5485C202.23 10.9965 202.053 11.6359 202.053 12.4665C202.053 13.2972 202.23 13.9412 202.585 14.3985C202.949 14.8465 203.462 15.0705 204.125 15.0705ZM214.779 12.6765H209.795C209.832 13.4699 210.047 14.0719 210.439 14.4825C210.831 14.8839 211.386 15.0845 212.105 15.0845C212.898 15.0845 213.626 14.8139 214.289 14.2725L214.667 15.0985C214.368 15.3785 213.986 15.6025 213.519 15.7705C213.052 15.9292 212.576 16.0085 212.091 16.0085C211.027 16.0085 210.187 15.6959 209.571 15.0705C208.964 14.4452 208.661 13.5819 208.661 12.4805C208.661 11.7805 208.796 11.1645 209.067 10.6325C209.338 10.0912 209.716 9.67119 210.201 9.37252C210.696 9.07386 211.256 8.92452 211.881 8.92452C212.786 8.92452 213.496 9.22319 214.009 9.82052C214.522 10.4085 214.779 11.2205 214.779 12.2565V12.6765ZM211.895 9.80652C211.298 9.80652 210.817 9.99319 210.453 10.3665C210.098 10.7399 209.888 11.2672 209.823 11.9485H213.785C213.766 11.2579 213.594 10.7305 213.267 10.3665C212.94 9.99319 212.483 9.80652 211.895 9.80652ZM220.314 9.90452L219.572 9.97452C218.872 10.0399 218.363 10.2592 218.046 10.6325C217.738 11.0059 217.584 11.4679 217.584 12.0185V15.9105H216.45V9.09252H217.556V10.2825C217.939 9.48919 218.69 9.04586 219.81 8.95252L220.216 8.92452L220.314 9.90452ZM223.627 16.0085C222.479 16.0085 221.569 15.7145 220.897 15.1265L221.275 14.2865C221.639 14.5759 222.008 14.7859 222.381 14.9165C222.764 15.0379 223.193 15.0985 223.669 15.0985C224.173 15.0985 224.556 15.0145 224.817 14.8465C225.088 14.6692 225.223 14.4172 225.223 14.0905C225.223 13.8199 225.134 13.6052 224.957 13.4465C224.78 13.2879 224.486 13.1619 224.075 13.0685L222.927 12.8025C222.348 12.6719 221.905 12.4479 221.597 12.1305C221.289 11.8132 221.135 11.4212 221.135 10.9545C221.135 10.3479 221.373 9.85786 221.849 9.48452C222.325 9.11119 222.96 8.92452 223.753 8.92452C224.229 8.92452 224.682 9.00386 225.111 9.16252C225.54 9.31186 225.9 9.53119 226.189 9.82052L225.811 10.6465C225.186 10.1145 224.5 9.84852 223.753 9.84852C223.277 9.84852 222.904 9.94186 222.633 10.1285C222.372 10.3059 222.241 10.5579 222.241 10.8845C222.241 11.1552 222.32 11.3745 222.479 11.5425C222.647 11.7012 222.913 11.8225 223.277 11.9065L224.439 12.1865C225.074 12.3359 225.545 12.5645 225.853 12.8725C226.161 13.1712 226.315 13.5632 226.315 14.0485C226.315 14.6459 226.072 15.1219 225.587 15.4765C225.111 15.8312 224.458 16.0085 223.627 16.0085ZM230.872 16.0085C230.228 16.0085 229.658 15.8639 229.164 15.5745C228.678 15.2852 228.3 14.8745 228.03 14.3425C227.768 13.8012 227.638 13.1759 227.638 12.4665C227.638 11.7572 227.768 11.1365 228.03 10.6045C228.3 10.0632 228.678 9.64786 229.164 9.35852C229.658 9.06919 230.228 8.92452 230.872 8.92452C231.516 8.92452 232.085 9.06919 232.58 9.35852C233.074 9.64786 233.452 10.0632 233.714 10.6045C233.984 11.1365 234.12 11.7572 234.12 12.4665C234.12 13.1759 233.984 13.8012 233.714 14.3425C233.452 14.8745 233.074 15.2852 232.58 15.5745C232.085 15.8639 231.516 16.0085 230.872 16.0085ZM230.872 15.0705C231.544 15.0705 232.057 14.8512 232.412 14.4125C232.776 13.9645 232.958 13.3159 232.958 12.4665C232.958 11.6359 232.776 10.9965 232.412 10.5485C232.048 10.0912 231.534 9.86252 230.872 9.86252C230.209 9.86252 229.696 10.0912 229.332 10.5485C228.968 10.9965 228.786 11.6359 228.786 12.4665C228.786 13.3065 228.963 13.9505 229.318 14.3985C229.682 14.8465 230.2 15.0705 230.872 15.0705ZM239.239 8.92452C240.873 8.92452 241.689 9.82519 241.689 11.6265V15.9105H240.555V11.6965C240.555 11.0619 240.429 10.5999 240.177 10.3105C239.935 10.0212 239.543 9.87652 239.001 9.87652C238.376 9.87652 237.877 10.0679 237.503 10.4505C237.13 10.8332 236.943 11.3512 236.943 12.0045V15.9105H235.809V9.09252H236.929V10.2125C237.153 9.79252 237.466 9.47519 237.867 9.26052C238.269 9.03652 238.726 8.92452 239.239 8.92452ZM246.538 8.92452C247.406 8.92452 248.05 9.14852 248.47 9.59652C248.9 10.0352 249.114 10.7072 249.114 11.6125V15.9105H248.008V14.7485C247.831 15.1499 247.56 15.4625 247.196 15.6865C246.832 15.9012 246.412 16.0085 245.936 16.0085C245.498 16.0085 245.092 15.9199 244.718 15.7425C244.354 15.5652 244.065 15.3179 243.85 15.0005C243.636 14.6832 243.528 14.3332 243.528 13.9505C243.528 13.4372 243.659 13.0405 243.92 12.7605C244.182 12.4712 244.611 12.2659 245.208 12.1445C245.806 12.0139 246.636 11.9485 247.7 11.9485H248.008V11.4865C248.008 10.9172 247.892 10.5065 247.658 10.2545C247.425 9.99319 247.047 9.86252 246.524 9.86252C245.74 9.86252 244.961 10.1052 244.186 10.5905L243.808 9.76452C244.163 9.51252 244.588 9.31186 245.082 9.16252C245.586 9.00386 246.072 8.92452 246.538 8.92452ZM246.09 15.1125C246.65 15.1125 247.108 14.9259 247.462 14.5525C247.826 14.1699 248.008 13.6799 248.008 13.0825V12.6765H247.756C246.935 12.6765 246.31 12.7139 245.88 12.7885C245.451 12.8539 245.143 12.9705 244.956 13.1385C244.779 13.2972 244.69 13.5352 244.69 13.8525C244.69 14.2165 244.821 14.5199 245.082 14.7625C245.353 14.9959 245.689 15.1125 246.09 15.1125ZM251.19 6.04052H252.324V15.9105H251.19V6.04052ZM264.101 6.04052V15.9105H262.967V14.6645C262.762 15.0939 262.459 15.4252 262.057 15.6585C261.665 15.8919 261.203 16.0085 260.671 16.0085C260.074 16.0085 259.547 15.8592 259.089 15.5605C258.632 15.2619 258.277 14.8465 258.025 14.3145C257.773 13.7732 257.647 13.1479 257.647 12.4385C257.647 11.7385 257.773 11.1225 258.025 10.5905C258.277 10.0585 258.632 9.64786 259.089 9.35852C259.547 9.06919 260.074 8.92452 260.671 8.92452C261.203 8.92452 261.665 9.04119 262.057 9.27452C262.459 9.50786 262.762 9.83919 262.967 10.2685V6.04052H264.101ZM260.895 15.0705C261.558 15.0705 262.067 14.8465 262.421 14.3985C262.785 13.9412 262.967 13.2972 262.967 12.4665C262.967 11.6359 262.785 10.9965 262.421 10.5485C262.067 10.1005 261.558 9.87652 260.895 9.87652C260.233 9.87652 259.715 10.1005 259.341 10.5485C258.977 10.9965 258.795 11.6265 258.795 12.4385C258.795 13.2692 258.977 13.9179 259.341 14.3845C259.715 14.8419 260.233 15.0705 260.895 15.0705ZM268.974 8.92452C269.842 8.92452 270.486 9.14852 270.906 9.59652C271.335 10.0352 271.55 10.7072 271.55 11.6125V15.9105H270.444V14.7485C270.266 15.1499 269.996 15.4625 269.632 15.6865C269.268 15.9012 268.848 16.0085 268.372 16.0085C267.933 16.0085 267.527 15.9199 267.154 15.7425C266.79 15.5652 266.5 15.3179 266.286 15.0005C266.071 14.6832 265.964 14.3332 265.964 13.9505C265.964 13.4372 266.094 13.0405 266.356 12.7605C266.617 12.4712 267.046 12.2659 267.644 12.1445C268.241 12.0139 269.072 11.9485 270.136 11.9485H270.444V11.4865C270.444 10.9172 270.327 10.5065 270.094 10.2545C269.86 9.99319 269.482 9.86252 268.96 9.86252C268.176 9.86252 267.396 10.1052 266.622 10.5905L266.244 9.76452C266.598 9.51252 267.023 9.31186 267.518 9.16252C268.022 9.00386 268.507 8.92452 268.974 8.92452ZM268.526 15.1125C269.086 15.1125 269.543 14.9259 269.898 14.5525C270.262 14.1699 270.444 13.6799 270.444 13.0825V12.6765H270.192C269.37 12.6765 268.745 12.7139 268.316 12.7885C267.886 12.8539 267.578 12.9705 267.392 13.1385C267.214 13.2972 267.126 13.5352 267.126 13.8525C267.126 14.2165 267.256 14.5199 267.518 14.7625C267.788 14.9959 268.124 15.1125 268.526 15.1125ZM276.622 15.0985C276.827 15.0985 277.032 15.0845 277.238 15.0565L277.182 15.9525C276.967 15.9899 276.734 16.0085 276.482 16.0085C275.66 16.0085 275.04 15.7939 274.62 15.3645C274.209 14.9352 274.004 14.3379 274.004 13.5725V9.98852H272.674V9.09252H274.004V7.02052H275.138V9.09252H277.07V9.98852H275.138V13.4885C275.138 14.5619 275.632 15.0985 276.622 15.0985ZM281.155 8.92452C282.023 8.92452 282.667 9.14852 283.087 9.59652C283.517 10.0352 283.731 10.7072 283.731 11.6125V15.9105H282.625V14.7485C282.448 15.1499 282.177 15.4625 281.813 15.6865C281.449 15.9012 281.029 16.0085 280.553 16.0085C280.115 16.0085 279.709 15.9199 279.335 15.7425C278.971 15.5652 278.682 15.3179 278.467 15.0005C278.253 14.6832 278.145 14.3332 278.145 13.9505C278.145 13.4372 278.276 13.0405 278.537 12.7605C278.799 12.4712 279.228 12.2659 279.825 12.1445C280.423 12.0139 281.253 11.9485 282.317 11.9485H282.625V11.4865C282.625 10.9172 282.509 10.5065 282.275 10.2545C282.042 9.99319 281.664 9.86252 281.141 9.86252C280.357 9.86252 279.578 10.1052 278.803 10.5905L278.425 9.76452C278.78 9.51252 279.205 9.31186 279.699 9.16252C280.203 9.00386 280.689 8.92452 281.155 8.92452ZM280.707 15.1125C281.267 15.1125 281.725 14.9259 282.079 14.5525C282.443 14.1699 282.625 13.6799 282.625 13.0825V12.6765H282.373C281.552 12.6765 280.927 12.7139 280.497 12.7885C280.068 12.8539 279.76 12.9705 279.573 13.1385C279.396 13.2972 279.307 13.5352 279.307 13.8525C279.307 14.2165 279.438 14.5199 279.699 14.7625C279.97 14.9959 280.306 15.1125 280.707 15.1125Z" fill="#181818"/>
</svg>
