<svg width="784" height="82" viewBox="0 0 784 82" fill="none" xmlns="http://www.w3.org/2000/svg">
<g filter="url(#filter0_d_1_2437)">
<rect x="569" y="0.910522" width="200" height="51" rx="2" fill="#E3B873"/>
</g>
<path d="M649.435 34.0145C648.005 34.0145 646.861 33.6289 646.003 32.8575L646.419 32.0385C646.869 32.4199 647.329 32.6929 647.797 32.8575C648.273 33.0222 648.824 33.1045 649.448 33.1045C650.184 33.1045 650.752 32.9615 651.151 32.6755C651.549 32.3895 651.749 31.9865 651.749 31.4665C651.749 31.1632 651.653 30.9162 651.463 30.7255C651.272 30.5349 651.021 30.3832 650.709 30.2705C650.397 30.1579 649.976 30.0409 649.448 29.9195C648.737 29.7549 648.152 29.5815 647.693 29.3995C647.242 29.2175 646.874 28.9575 646.588 28.6195C646.31 28.2815 646.172 27.8395 646.172 27.2935C646.172 26.7735 646.306 26.3142 646.575 25.9155C646.852 25.5082 647.242 25.1962 647.745 24.9795C648.256 24.7542 648.845 24.6415 649.513 24.6415C650.145 24.6415 650.735 24.7412 651.281 24.9405C651.835 25.1399 652.303 25.4259 652.685 25.7985L652.282 26.6175C651.848 26.2449 651.406 25.9762 650.956 25.8115C650.514 25.6382 650.033 25.5515 649.513 25.5515C648.802 25.5515 648.243 25.7032 647.836 26.0065C647.437 26.3012 647.238 26.7172 647.238 27.2545C647.238 27.7139 647.415 28.0605 647.771 28.2945C648.126 28.5285 648.663 28.7279 649.383 28.8925C650.171 29.0832 650.791 29.2609 651.242 29.4255C651.692 29.5815 652.065 29.8199 652.36 30.1405C652.663 30.4612 652.815 30.8902 652.815 31.4275C652.815 31.9475 652.676 32.4025 652.399 32.7925C652.13 33.1825 651.74 33.4859 651.229 33.7025C650.717 33.9105 650.119 34.0145 649.435 34.0145ZM658.121 34.0145C656.925 34.0145 656.019 33.7025 655.404 33.0785C654.789 32.4545 654.481 31.5359 654.481 30.3225V24.7455H655.534V30.4135C655.534 31.3062 655.751 31.9779 656.184 32.4285C656.626 32.8792 657.272 33.1045 658.121 33.1045C658.97 33.1045 659.612 32.8792 660.045 32.4285C660.478 31.9779 660.695 31.3062 660.695 30.4135V24.7455H661.761V30.3225C661.761 31.5272 661.449 32.4459 660.825 33.0785C660.21 33.7025 659.308 34.0145 658.121 34.0145ZM669.153 29.2045C669.682 29.3432 670.089 29.6032 670.375 29.9845C670.67 30.3659 670.817 30.8425 670.817 31.4145C670.817 32.2205 670.553 32.8402 670.024 33.2735C669.496 33.6982 668.746 33.9105 667.775 33.9105H663.953V24.7455H667.632C668.577 24.7455 669.309 24.9535 669.829 25.3695C670.349 25.7855 670.609 26.3749 670.609 27.1375C670.609 27.6315 670.479 28.0562 670.219 28.4115C669.968 28.7669 669.613 29.0312 669.153 29.2045ZM665.006 28.8145H667.476C668.161 28.8145 668.677 28.6759 669.023 28.3985C669.379 28.1212 669.556 27.7182 669.556 27.1895C669.556 26.1495 668.863 25.6295 667.476 25.6295H665.006V28.8145ZM667.671 33.0265C668.391 33.0265 668.919 32.8965 669.257 32.6365C669.604 32.3679 669.777 31.9519 669.777 31.3885C669.777 30.2619 669.075 29.6985 667.671 29.6985H665.006V33.0265H667.671ZM681.371 24.7455V33.9105H680.396L680.409 26.8125L677.432 32.4545H676.678L673.688 26.8645L673.701 33.9105H672.713V24.7455H673.597L677.068 31.3885L680.5 24.7455H681.371ZM683.644 24.7455H684.71V33.9105H683.644V24.7455ZM689.18 25.6555H685.995V24.7455H693.457V25.6555H690.259V33.9105H689.18V25.6555Z" fill="white"/>
<rect x="0.25" y="-0.25" width="230.5" height="0.5" transform="matrix(1 0 0 -1 0 47.4105)" stroke="#363636" stroke-opacity="0.3" stroke-width="0.5"/>
<path d="M14.938 26.0405L11.494 35.9105H10.514L7.7 27.8325L4.886 35.9105H3.92L0.462 26.0405H1.624L4.424 34.2865L7.294 26.0405L8.162 26.0545L10.99 34.3005L13.818 26.0405H14.938ZM19.8882 28.9245C21.5215 28.9245 22.3382 29.8252 22.3382 31.6265V35.9105H21.2042V31.6965C21.2042 31.0619 21.0782 30.5999 20.8262 30.3105C20.5835 30.0212 20.1915 29.8765 19.6502 29.8765C19.0249 29.8765 18.5255 30.0679 18.1522 30.4505C17.7789 30.8332 17.5922 31.3512 17.5922 32.0045V35.9105H16.4582V26.0405H17.5922V30.1845C17.8162 29.7739 18.1242 29.4612 18.5162 29.2465C18.9175 29.0319 19.3749 28.9245 19.8882 28.9245ZM27.1872 28.9245C28.0552 28.9245 28.6992 29.1485 29.1192 29.5965C29.5486 30.0352 29.7632 30.7072 29.7632 31.6125V35.9105H28.6572V34.7485C28.4799 35.1499 28.2092 35.4625 27.8452 35.6865C27.4812 35.9012 27.0612 36.0085 26.5852 36.0085C26.1466 36.0085 25.7406 35.9199 25.3672 35.7425C25.0032 35.5652 24.7139 35.3179 24.4992 35.0005C24.2846 34.6832 24.1772 34.3332 24.1772 33.9505C24.1772 33.4372 24.3079 33.0405 24.5692 32.7605C24.8306 32.4712 25.2599 32.2659 25.8572 32.1445C26.4546 32.0139 27.2852 31.9485 28.3492 31.9485H28.6572V31.4865C28.6572 30.9172 28.5406 30.5065 28.3072 30.2545C28.0739 29.9932 27.6959 29.8625 27.1732 29.8625C26.3892 29.8625 25.6099 30.1052 24.8352 30.5905L24.4572 29.7645C24.8119 29.5125 25.2366 29.3119 25.7312 29.1625C26.2352 29.0039 26.7206 28.9245 27.1872 28.9245ZM26.7392 35.1125C27.2992 35.1125 27.7566 34.9259 28.1112 34.5525C28.4752 34.1699 28.6572 33.6799 28.6572 33.0825V32.6765H28.4052C27.5839 32.6765 26.9586 32.7139 26.5292 32.7885C26.0999 32.8539 25.7919 32.9705 25.6052 33.1385C25.4279 33.2972 25.3392 33.5352 25.3392 33.8525C25.3392 34.2165 25.4699 34.5199 25.7312 34.7625C26.0019 34.9959 26.3379 35.1125 26.7392 35.1125ZM34.8351 35.0985C35.0404 35.0985 35.2457 35.0845 35.4511 35.0565L35.3951 35.9525C35.1804 35.9899 34.9471 36.0085 34.6951 36.0085C33.8737 36.0085 33.2531 35.7939 32.8331 35.3645C32.4224 34.9352 32.2171 34.3379 32.2171 33.5725V29.9885H30.8871V29.0925H32.2171V27.0205H33.3511V29.0925H35.2831V29.9885H33.3511V33.4885C33.3511 34.5619 33.8457 35.0985 34.8351 35.0985ZM40.2063 29.0925H41.3403V35.9105H40.2063V29.0925ZM41.4663 26.1385V27.4125H40.0943V26.1385H41.4663ZM45.7702 36.0085C44.6222 36.0085 43.7122 35.7145 43.0402 35.1265L43.4182 34.2865C43.7822 34.5759 44.1508 34.7859 44.5242 34.9165C44.9068 35.0379 45.3362 35.0985 45.8122 35.0985C46.3162 35.0985 46.6988 35.0145 46.9602 34.8465C47.2308 34.6692 47.3662 34.4172 47.3662 34.0905C47.3662 33.8199 47.2775 33.6052 47.1002 33.4465C46.9228 33.2879 46.6288 33.1619 46.2182 33.0685L45.0702 32.8025C44.4915 32.6719 44.0482 32.4479 43.7402 32.1305C43.4322 31.8132 43.2782 31.4212 43.2782 30.9545C43.2782 30.3479 43.5162 29.8579 43.9922 29.4845C44.4682 29.1112 45.1028 28.9245 45.8962 28.9245C46.3722 28.9245 46.8248 29.0039 47.2542 29.1625C47.6835 29.3119 48.0428 29.5312 48.3322 29.8205L47.9542 30.6465C47.3288 30.1145 46.6428 29.8485 45.8962 29.8485C45.4202 29.8485 45.0468 29.9419 44.7762 30.1285C44.5148 30.3059 44.3842 30.5579 44.3842 30.8845C44.3842 31.1552 44.4635 31.3745 44.6222 31.5425C44.7902 31.7012 45.0562 31.8225 45.4202 31.9065L46.5822 32.1865C47.2168 32.3359 47.6882 32.5645 47.9962 32.8725C48.3042 33.1712 48.4582 33.5632 48.4582 34.0485C48.4582 34.6459 48.2155 35.1219 47.7302 35.4765C47.2542 35.8312 46.6008 36.0085 45.7702 36.0085ZM59.8161 29.1065L55.7841 38.4305H54.6221L55.7701 35.8265L52.8861 29.1065H54.0901L56.3721 34.6785L58.6821 29.1065H59.8161ZM63.7335 36.0085C63.0895 36.0085 62.5201 35.8639 62.0255 35.5745C61.5401 35.2852 61.1621 34.8745 60.8915 34.3425C60.6301 33.8012 60.4995 33.1759 60.4995 32.4665C60.4995 31.7572 60.6301 31.1365 60.8915 30.6045C61.1621 30.0632 61.5401 29.6479 62.0255 29.3585C62.5201 29.0692 63.0895 28.9245 63.7335 28.9245C64.3775 28.9245 64.9468 29.0692 65.4415 29.3585C65.9361 29.6479 66.3141 30.0632 66.5755 30.6045C66.8461 31.1365 66.9815 31.7572 66.9815 32.4665C66.9815 33.1759 66.8461 33.8012 66.5755 34.3425C66.3141 34.8745 65.9361 35.2852 65.4415 35.5745C64.9468 35.8639 64.3775 36.0085 63.7335 36.0085ZM63.7335 35.0705C64.4055 35.0705 64.9188 34.8512 65.2735 34.4125C65.6375 33.9645 65.8195 33.3159 65.8195 32.4665C65.8195 31.6359 65.6375 30.9965 65.2735 30.5485C64.9095 30.0912 64.3961 29.8625 63.7335 29.8625C63.0708 29.8625 62.5575 30.0912 62.1935 30.5485C61.8295 30.9965 61.6475 31.6359 61.6475 32.4665C61.6475 33.3065 61.8248 33.9505 62.1795 34.3985C62.5435 34.8465 63.0615 35.0705 63.7335 35.0705ZM74.4111 29.0925V35.9105H73.3051V34.7485C73.0904 35.1592 72.7871 35.4719 72.3951 35.6865C72.0124 35.9012 71.5784 36.0085 71.0931 36.0085C70.2811 36.0085 69.6698 35.7845 69.2591 35.3365C68.8484 34.8792 68.6431 34.2072 68.6431 33.3205V29.0925H69.7771V33.2925C69.7771 33.8992 69.8984 34.3472 70.1411 34.6365C70.3838 34.9165 70.7664 35.0565 71.2891 35.0565C71.8864 35.0565 72.3671 34.8652 72.7311 34.4825C73.0951 34.0905 73.2771 33.5772 73.2771 32.9425V29.0925H74.4111ZM80.3828 29.9045L79.6408 29.9745C78.9408 30.0399 78.4321 30.2592 78.1148 30.6325C77.8068 31.0059 77.6528 31.4679 77.6528 32.0185V35.9105H76.5188V29.0925H77.6248V30.2825C78.0074 29.4892 78.7588 29.0459 79.8788 28.9525L80.2848 28.9245L80.3828 29.9045ZM88.4937 28.9245C90.127 28.9245 90.9437 29.8252 90.9437 31.6265V35.9105H89.8097V31.6965C89.8097 31.0619 89.6837 30.5999 89.4317 30.3105C89.189 30.0212 88.797 29.8765 88.2557 29.8765C87.6303 29.8765 87.131 30.0679 86.7577 30.4505C86.3843 30.8332 86.1977 31.3512 86.1977 32.0045V35.9105H85.0637V29.0925H86.1837V30.2125C86.4077 29.7925 86.7203 29.4752 87.1217 29.2605C87.523 29.0365 87.9803 28.9245 88.4937 28.9245ZM95.7927 28.9245C96.6607 28.9245 97.3047 29.1485 97.7247 29.5965C98.154 30.0352 98.3687 30.7072 98.3687 31.6125V35.9105H97.2627V34.7485C97.0854 35.1499 96.8147 35.4625 96.4507 35.6865C96.0867 35.9012 95.6667 36.0085 95.1907 36.0085C94.752 36.0085 94.346 35.9199 93.9727 35.7425C93.6087 35.5652 93.3194 35.3179 93.1047 35.0005C92.89 34.6832 92.7827 34.3332 92.7827 33.9505C92.7827 33.4372 92.9134 33.0405 93.1747 32.7605C93.436 32.4712 93.8654 32.2659 94.4627 32.1445C95.06 32.0139 95.8907 31.9485 96.9547 31.9485H97.2627V31.4865C97.2627 30.9172 97.146 30.5065 96.9127 30.2545C96.6794 29.9932 96.3014 29.8625 95.7787 29.8625C94.9947 29.8625 94.2154 30.1052 93.4407 30.5905L93.0627 29.7645C93.4174 29.5125 93.842 29.3119 94.3367 29.1625C94.8407 29.0039 95.326 28.9245 95.7927 28.9245ZM95.3447 35.1125C95.9047 35.1125 96.362 34.9259 96.7167 34.5525C97.0807 34.1699 97.2627 33.6799 97.2627 33.0825V32.6765H97.0107C96.1894 32.6765 95.564 32.7139 95.1347 32.7885C94.7054 32.8539 94.3974 32.9705 94.2107 33.1385C94.0334 33.2972 93.9447 33.5352 93.9447 33.8525C93.9447 34.2165 94.0754 34.5199 94.3367 34.7625C94.6074 34.9959 94.9434 35.1125 95.3447 35.1125ZM108.033 28.9245C109.545 28.9245 110.301 29.8252 110.301 31.6265V35.9105H109.167V31.6825C109.167 31.0572 109.055 30.5999 108.831 30.3105C108.616 30.0212 108.266 29.8765 107.781 29.8765C107.211 29.8765 106.763 30.0679 106.437 30.4505C106.11 30.8332 105.947 31.3559 105.947 32.0185V35.9105H104.813V31.6825C104.813 31.0479 104.701 30.5905 104.477 30.3105C104.253 30.0212 103.898 29.8765 103.413 29.8765C102.843 29.8765 102.395 30.0679 102.069 30.4505C101.742 30.8332 101.579 31.3559 101.579 32.0185V35.9105H100.445V29.0925H101.565V30.1705C101.77 29.7692 102.055 29.4612 102.419 29.2465C102.783 29.0319 103.203 28.9245 103.679 28.9245C104.733 28.9245 105.429 29.3725 105.765 30.2685C105.961 29.8485 106.259 29.5219 106.661 29.2885C107.062 29.0459 107.519 28.9245 108.033 28.9245ZM118.078 32.6765H113.094C113.132 33.4699 113.346 34.0719 113.738 34.4825C114.13 34.8839 114.686 35.0845 115.404 35.0845C116.198 35.0845 116.926 34.8139 117.588 34.2725L117.966 35.0985C117.668 35.3785 117.285 35.6025 116.818 35.7705C116.352 35.9292 115.876 36.0085 115.39 36.0085C114.326 36.0085 113.486 35.6959 112.87 35.0705C112.264 34.4452 111.96 33.5819 111.96 32.4805C111.96 31.7805 112.096 31.1645 112.366 30.6325C112.637 30.0912 113.015 29.6712 113.5 29.3725C113.995 29.0739 114.555 28.9245 115.18 28.9245C116.086 28.9245 116.795 29.2232 117.308 29.8205C117.822 30.4085 118.078 31.2205 118.078 32.2565V32.6765ZM115.194 29.8065C114.597 29.8065 114.116 29.9932 113.752 30.3665C113.398 30.7399 113.188 31.2672 113.122 31.9485H117.084C117.066 31.2579 116.893 30.7305 116.566 30.3665C116.24 29.9932 115.782 29.8065 115.194 29.8065ZM121.009 29.0925V30.5345H119.581V29.0925H121.009ZM121.009 34.4825V35.9105H119.581V34.4825H121.009Z" fill="#363636"/>
<path d="M8.476 6.74552V15.9105H7.657L2.132 8.53952V15.9105H1.131V6.74552H1.95L7.475 14.1165V6.74552H8.476ZM13.1594 9.42352C13.9654 9.42352 14.5634 9.63152 14.9534 10.0475C15.352 10.4549 15.5514 11.0789 15.5514 11.9195V15.9105H14.5244V14.8315C14.3597 15.2042 14.1084 15.4945 13.7704 15.7025C13.4324 15.9019 13.0424 16.0015 12.6004 16.0015C12.193 16.0015 11.816 15.9192 11.4694 15.7545C11.1314 15.5899 10.8627 15.3602 10.6634 15.0655C10.464 14.7709 10.3644 14.4459 10.3644 14.0905C10.3644 13.6139 10.4857 13.2455 10.7284 12.9855C10.971 12.7169 11.3697 12.5262 11.9244 12.4135C12.479 12.2922 13.2504 12.2315 14.2384 12.2315H14.5244V11.8025C14.5244 11.2739 14.416 10.8925 14.1994 10.6585C13.9827 10.4159 13.6317 10.2945 13.1464 10.2945C12.4184 10.2945 11.6947 10.5199 10.9754 10.9705L10.6244 10.2035C10.9537 9.96952 11.348 9.78319 11.8074 9.64452C12.2754 9.49719 12.726 9.42352 13.1594 9.42352ZM12.7434 15.1695C13.2634 15.1695 13.688 14.9962 14.0174 14.6495C14.3554 14.2942 14.5244 13.8392 14.5244 13.2845V12.9075H14.2904C13.5277 12.9075 12.947 12.9422 12.5484 13.0115C12.1497 13.0722 11.8637 13.1805 11.6904 13.3365C11.5257 13.4839 11.4434 13.7049 11.4434 13.9995C11.4434 14.3375 11.5647 14.6192 11.8074 14.8445C12.0587 15.0612 12.3707 15.1695 12.7434 15.1695ZM24.5249 9.42352C25.9289 9.42352 26.6309 10.2599 26.6309 11.9325V15.9105H25.5779V11.9845C25.5779 11.4039 25.4739 10.9792 25.2659 10.7105C25.0666 10.4419 24.7416 10.3075 24.2909 10.3075C23.7622 10.3075 23.3462 10.4852 23.0429 10.8405C22.7396 11.1959 22.5879 11.6812 22.5879 12.2965V15.9105H21.5349V11.9845C21.5349 11.3952 21.4309 10.9705 21.2229 10.7105C21.0149 10.4419 20.6856 10.3075 20.2349 10.3075C19.7062 10.3075 19.2902 10.4852 18.9869 10.8405C18.6836 11.1959 18.5319 11.6812 18.5319 12.2965V15.9105H17.4789V9.57952H18.5189V10.5805C18.7096 10.2079 18.9739 9.92186 19.3119 9.72252C19.6499 9.52319 20.0399 9.42352 20.4819 9.42352C21.4612 9.42352 22.1069 9.83952 22.4189 10.6715C22.6009 10.2815 22.8782 9.97819 23.2509 9.76152C23.6236 9.53619 24.0482 9.42352 24.5249 9.42352ZM33.8532 12.9075H29.2252C29.2599 13.6442 29.4592 14.2032 29.8232 14.5845C30.1872 14.9572 30.7029 15.1435 31.3702 15.1435C32.1069 15.1435 32.7829 14.8922 33.3982 14.3895L33.7492 15.1565C33.4719 15.4165 33.1166 15.6245 32.6832 15.7805C32.2499 15.9279 31.8079 16.0015 31.3572 16.0015C30.3692 16.0015 29.5892 15.7112 29.0172 15.1305C28.4539 14.5499 28.1722 13.7482 28.1722 12.7255C28.1722 12.0755 28.2979 11.5035 28.5492 11.0095C28.8006 10.5069 29.1516 10.1169 29.6022 9.83952C30.0616 9.56219 30.5816 9.42352 31.1622 9.42352C32.0029 9.42352 32.6616 9.70086 33.1382 10.2555C33.6149 10.8015 33.8532 11.5555 33.8532 12.5175V12.9075ZM31.1752 10.2425C30.6206 10.2425 30.1742 10.4159 29.8362 10.7625C29.5069 11.1092 29.3119 11.5989 29.2512 12.2315H32.9302C32.9129 11.5902 32.7526 11.1005 32.4492 10.7625C32.1459 10.4159 31.7212 10.2425 31.1752 10.2425Z" fill="#363636" fill-opacity="0.5"/>
<rect x="0.25" y="-0.25" width="230.5" height="0.5" transform="matrix(1 0 0 -1 289 47.4105)" stroke="#363636" stroke-opacity="0.3" stroke-width="0.5"/>
<path d="M293.774 31.2486V35.9106H292.626V31.2346L288.748 26.0406H290.078L293.214 30.2966L296.35 26.0406H297.652L293.774 31.2486ZM300.22 36.0086C299.576 36.0086 299.007 35.864 298.512 35.5746C298.027 35.2853 297.649 34.8746 297.378 34.3426C297.117 33.8013 296.986 33.176 296.986 32.4666C296.986 31.7573 297.117 31.1366 297.378 30.6046C297.649 30.0633 298.027 29.648 298.512 29.3586C299.007 29.0693 299.576 28.9246 300.22 28.9246C300.864 28.9246 301.433 29.0693 301.928 29.3586C302.423 29.648 302.801 30.0633 303.062 30.6046C303.333 31.1366 303.468 31.7573 303.468 32.4666C303.468 33.176 303.333 33.8013 303.062 34.3426C302.801 34.8746 302.423 35.2853 301.928 35.5746C301.433 35.864 300.864 36.0086 300.22 36.0086ZM300.22 35.0706C300.892 35.0706 301.405 34.8513 301.76 34.4126C302.124 33.9646 302.306 33.316 302.306 32.4666C302.306 31.636 302.124 30.9966 301.76 30.5486C301.396 30.0913 300.883 29.8626 300.22 29.8626C299.557 29.8626 299.044 30.0913 298.68 30.5486C298.316 30.9966 298.134 31.636 298.134 32.4666C298.134 33.3066 298.311 33.9506 298.666 34.3986C299.03 34.8466 299.548 35.0706 300.22 35.0706ZM310.897 29.0926V35.9106H309.791V34.7486C309.577 35.1593 309.273 35.472 308.881 35.6866C308.499 35.9013 308.065 36.0086 307.579 36.0086C306.767 36.0086 306.156 35.7846 305.745 35.3366C305.335 34.8793 305.129 34.2073 305.129 33.3206V29.0926H306.263V33.2926C306.263 33.8993 306.385 34.3473 306.627 34.6366C306.87 34.9166 307.253 35.0566 307.775 35.0566C308.373 35.0566 308.853 34.8653 309.217 34.4826C309.581 34.0906 309.763 33.5773 309.763 32.9426V29.0926H310.897ZM316.869 29.9046L316.127 29.9746C315.427 30.04 314.918 30.2593 314.601 30.6326C314.293 31.006 314.139 31.468 314.139 32.0186V35.9106H313.005V29.0926H314.111V30.2826C314.494 29.4893 315.245 29.046 316.365 28.9526L316.771 28.9246L316.869 29.9046ZM324.98 28.9246C325.577 28.9246 326.105 29.074 326.562 29.3726C327.019 29.6713 327.374 30.0913 327.626 30.6326C327.878 31.1646 328.004 31.7853 328.004 32.4946C328.004 33.204 327.878 33.8246 327.626 34.3566C327.374 34.8793 327.019 35.2853 326.562 35.5746C326.114 35.864 325.587 36.0086 324.98 36.0086C324.448 36.0086 323.981 35.892 323.58 35.6586C323.188 35.4253 322.889 35.094 322.684 34.6646V38.4306H321.55V29.0926H322.684V30.2686C322.889 29.8393 323.188 29.508 323.58 29.2746C323.981 29.0413 324.448 28.9246 324.98 28.9246ZM324.756 35.0706C325.419 35.0706 325.932 34.8466 326.296 34.3986C326.66 33.9506 326.842 33.316 326.842 32.4946C326.842 31.6733 326.66 31.034 326.296 30.5766C325.932 30.11 325.419 29.8766 324.756 29.8766C324.093 29.8766 323.58 30.1006 323.216 30.5486C322.861 30.9966 322.684 31.636 322.684 32.4666C322.684 33.2973 322.861 33.9413 323.216 34.3986C323.58 34.8466 324.093 35.0706 324.756 35.0706ZM333.128 28.9246C334.762 28.9246 335.578 29.8253 335.578 31.6266V35.9106H334.444V31.6966C334.444 31.062 334.318 30.6 334.066 30.3106C333.824 30.0213 333.432 29.8766 332.89 29.8766C332.265 29.8766 331.766 30.068 331.392 30.4506C331.019 30.8333 330.832 31.3513 330.832 32.0046V35.9106H329.698V26.0406H330.832V30.1846C331.056 29.774 331.364 29.4613 331.756 29.2466C332.158 29.032 332.615 28.9246 333.128 28.9246ZM340.484 36.0086C339.84 36.0086 339.27 35.864 338.776 35.5746C338.29 35.2853 337.912 34.8746 337.642 34.3426C337.38 33.8013 337.25 33.176 337.25 32.4666C337.25 31.7573 337.38 31.1366 337.642 30.6046C337.912 30.0633 338.29 29.648 338.776 29.3586C339.27 29.0693 339.84 28.9246 340.484 28.9246C341.128 28.9246 341.697 29.0693 342.192 29.3586C342.686 29.648 343.064 30.0633 343.326 30.6046C343.596 31.1366 343.732 31.7573 343.732 32.4666C343.732 33.176 343.596 33.8013 343.326 34.3426C343.064 34.8746 342.686 35.2853 342.192 35.5746C341.697 35.864 341.128 36.0086 340.484 36.0086ZM340.484 35.0706C341.156 35.0706 341.669 34.8513 342.024 34.4126C342.388 33.9646 342.57 33.316 342.57 32.4666C342.57 31.636 342.388 30.9966 342.024 30.5486C341.66 30.0913 341.146 29.8626 340.484 29.8626C339.821 29.8626 339.308 30.0913 338.944 30.5486C338.58 30.9966 338.398 31.636 338.398 32.4666C338.398 33.3066 338.575 33.9506 338.93 34.3986C339.294 34.8466 339.812 35.0706 340.484 35.0706ZM348.851 28.9246C350.484 28.9246 351.301 29.8253 351.301 31.6266V35.9106H350.167V31.6966C350.167 31.062 350.041 30.6 349.789 30.3106C349.546 30.0213 349.154 29.8766 348.613 29.8766C347.988 29.8766 347.488 30.068 347.115 30.4506C346.742 30.8333 346.555 31.3513 346.555 32.0046V35.9106H345.421V29.0926H346.541V30.2126C346.765 29.7926 347.078 29.4753 347.479 29.2606C347.88 29.0366 348.338 28.9246 348.851 28.9246ZM359.09 32.6766H354.106C354.143 33.47 354.358 34.072 354.75 34.4826C355.142 34.884 355.697 35.0846 356.416 35.0846C357.209 35.0846 357.937 34.814 358.6 34.2726L358.978 35.0986C358.679 35.3786 358.297 35.6026 357.83 35.7706C357.363 35.9293 356.887 36.0086 356.402 36.0086C355.338 36.0086 354.498 35.696 353.882 35.0706C353.275 34.4453 352.972 33.582 352.972 32.4806C352.972 31.7806 353.107 31.1646 353.378 30.6326C353.649 30.0913 354.027 29.6713 354.512 29.3726C355.007 29.074 355.567 28.9246 356.192 28.9246C357.097 28.9246 357.807 29.2233 358.32 29.8206C358.833 30.4086 359.09 31.2206 359.09 32.2566V32.6766ZM356.206 29.8066C355.609 29.8066 355.128 29.9933 354.764 30.3666C354.409 30.74 354.199 31.2673 354.134 31.9486H358.096C358.077 31.258 357.905 30.7306 357.578 30.3666C357.251 29.9933 356.794 29.8066 356.206 29.8066ZM367.8 28.9246C369.434 28.9246 370.25 29.8253 370.25 31.6266V35.9106H369.116V31.6966C369.116 31.062 368.99 30.6 368.738 30.3106C368.496 30.0213 368.104 29.8766 367.562 29.8766C366.937 29.8766 366.438 30.068 366.064 30.4506C365.691 30.8333 365.504 31.3513 365.504 32.0046V35.9106H364.37V29.0926H365.49V30.2126C365.714 29.7926 366.027 29.4753 366.428 29.2606C366.83 29.0366 367.287 28.9246 367.8 28.9246ZM378.067 29.0926V35.9106H376.961V34.7486C376.747 35.1593 376.443 35.472 376.051 35.6866C375.669 35.9013 375.235 36.0086 374.749 36.0086C373.937 36.0086 373.326 35.7846 372.915 35.3366C372.505 34.8793 372.299 34.2073 372.299 33.3206V29.0926H373.433V33.2926C373.433 33.8993 373.555 34.3473 373.797 34.6366C374.04 34.9166 374.423 35.0566 374.945 35.0566C375.543 35.0566 376.023 34.8653 376.387 34.4826C376.751 34.0906 376.933 33.5773 376.933 32.9426V29.0926H378.067ZM387.763 28.9246C389.275 28.9246 390.031 29.8253 390.031 31.6266V35.9106H388.897V31.6826C388.897 31.0573 388.785 30.6 388.561 30.3106C388.346 30.0213 387.996 29.8766 387.511 29.8766C386.942 29.8766 386.494 30.068 386.167 30.4506C385.84 30.8333 385.677 31.356 385.677 32.0186V35.9106H384.543V31.6826C384.543 31.048 384.431 30.5906 384.207 30.3106C383.983 30.0213 383.628 29.8766 383.143 29.8766C382.574 29.8766 382.126 30.068 381.799 30.4506C381.472 30.8333 381.309 31.356 381.309 32.0186V35.9106H380.175V29.0926H381.295V30.1706C381.5 29.7693 381.785 29.4613 382.149 29.2466C382.513 29.032 382.933 28.9246 383.409 28.9246C384.464 28.9246 385.159 29.3726 385.495 30.2686C385.691 29.8486 385.99 29.522 386.391 29.2886C386.792 29.046 387.25 28.9246 387.763 28.9246ZM395.527 28.9246C396.124 28.9246 396.652 29.0693 397.109 29.3586C397.566 29.648 397.921 30.0586 398.173 30.5906C398.425 31.1226 398.551 31.7386 398.551 32.4386C398.551 33.148 398.425 33.7733 398.173 34.3146C397.921 34.8466 397.566 35.262 397.109 35.5606C396.652 35.8593 396.124 36.0086 395.527 36.0086C394.995 36.0086 394.528 35.892 394.127 35.6586C393.735 35.4253 393.436 35.094 393.231 34.6646V35.9106H392.097V26.0406H393.231V30.2686C393.436 29.8393 393.735 29.508 394.127 29.2746C394.528 29.0413 394.995 28.9246 395.527 28.9246ZM395.303 35.0706C395.966 35.0706 396.479 34.842 396.843 34.3846C397.207 33.918 397.389 33.2693 397.389 32.4386C397.389 31.6266 397.207 30.9966 396.843 30.5486C396.479 30.1006 395.966 29.8766 395.303 29.8766C394.64 29.8766 394.127 30.1006 393.763 30.5486C393.408 30.9966 393.231 31.636 393.231 32.4666C393.231 33.2973 393.408 33.9413 393.763 34.3986C394.127 34.8466 394.64 35.0706 395.303 35.0706ZM405.957 32.6766H400.973C401.011 33.47 401.225 34.072 401.617 34.4826C402.009 34.884 402.565 35.0846 403.283 35.0846C404.077 35.0846 404.805 34.814 405.467 34.2726L405.845 35.0986C405.547 35.3786 405.164 35.6026 404.697 35.7706C404.231 35.9293 403.755 36.0086 403.269 36.0086C402.205 36.0086 401.365 35.696 400.749 35.0706C400.143 34.4453 399.839 33.582 399.839 32.4806C399.839 31.7806 399.975 31.1646 400.245 30.6326C400.516 30.0913 400.894 29.6713 401.379 29.3726C401.874 29.074 402.434 28.9246 403.059 28.9246C403.965 28.9246 404.674 29.2233 405.187 29.8206C405.701 30.4086 405.957 31.2206 405.957 32.2566V32.6766ZM403.073 29.8066C402.476 29.8066 401.995 29.9933 401.631 30.3666C401.277 30.74 401.067 31.2673 401.001 31.9486H404.963C404.945 31.258 404.772 30.7306 404.445 30.3666C404.119 29.9933 403.661 29.8066 403.073 29.8066ZM411.492 29.9046L410.75 29.9746C410.05 30.04 409.541 30.2593 409.224 30.6326C408.916 31.006 408.762 31.468 408.762 32.0186V35.9106H407.628V29.0926H408.734V30.2826C409.117 29.4893 409.868 29.046 410.988 28.9526L411.394 28.9246L411.492 29.9046ZM414.001 29.0926V30.5346H412.573V29.0926H414.001ZM414.001 34.4826V35.9106H412.573V34.4826H414.001Z" fill="#363636"/>
<path d="M290.128 6.77274L293.755 6.76842C294.717 6.76727 295.463 7.00039 295.992 7.46776C296.53 7.93512 296.8 8.5978 296.801 9.4558C296.802 10.3138 296.534 10.9814 295.997 11.4588C295.46 11.9361 294.715 12.1753 293.762 12.1764L291.201 12.1795L291.205 15.9365L290.139 15.9377L290.128 6.77274ZM293.657 11.2925C295.052 11.2909 295.749 10.679 295.748 9.45705C295.746 8.25238 295.048 7.65088 293.653 7.65254L291.196 7.65547L291.2 11.2955L293.657 11.2925ZM301.54 9.43716C303.056 9.43535 303.816 10.2708 303.818 11.9434L303.822 15.9214L302.769 15.9227L302.765 12.0097C302.764 11.4204 302.646 10.9915 302.412 10.7231C302.186 10.4547 301.822 10.3208 301.32 10.3214C300.739 10.3221 300.275 10.5003 299.929 10.8561C299.583 11.2118 299.41 11.693 299.411 12.2997L299.415 15.9267L298.362 15.9279L298.351 6.76295L299.404 6.76169L299.409 10.6097C299.616 10.2281 299.902 9.93744 300.266 9.73767C300.638 9.53789 301.063 9.43772 301.54 9.43716ZM308.377 16.007C307.779 16.0077 307.25 15.874 306.791 15.6059C306.34 15.3378 305.988 14.9569 305.736 14.4632C305.493 13.9608 305.371 13.3803 305.37 12.7216C305.369 12.0629 305.49 11.4865 305.732 10.9922C305.983 10.4892 306.333 10.1031 306.784 9.83391C307.243 9.5647 307.771 9.42974 308.369 9.42902C308.967 9.42831 309.496 9.56202 309.956 9.83014C310.415 10.0983 310.767 10.4835 311.01 10.9859C311.262 11.4796 311.388 12.0558 311.389 12.7144C311.39 13.3731 311.265 13.9539 311.014 14.4569C310.772 14.9512 310.422 15.3329 309.963 15.6021C309.504 15.8713 308.975 16.0063 308.377 16.007ZM308.376 15.136C309 15.1353 309.476 14.931 309.805 14.5233C310.143 14.1069 310.311 13.5044 310.31 12.7157C310.309 11.9444 310.139 11.3509 309.801 10.9353C309.462 10.5111 308.986 10.2993 308.37 10.3C307.755 10.3008 307.278 10.5137 306.941 10.9387C306.603 11.3551 306.435 11.949 306.436 12.7203C306.437 13.5003 306.602 14.0981 306.932 14.5137C307.271 14.9293 307.752 15.1368 308.376 15.136ZM316.139 9.41978C317.656 9.41797 318.415 10.2534 318.417 11.9261L318.422 15.9041L317.369 15.9053L317.364 11.9923C317.364 11.403 317.246 10.9741 317.012 10.7057C316.786 10.4373 316.422 10.3034 315.919 10.304C315.339 10.3047 314.875 10.4829 314.529 10.8387C314.183 11.1944 314.01 11.6756 314.011 12.2823L314.015 15.9093L312.962 15.9106L312.954 9.57957L313.994 9.57833L313.996 10.6183C314.203 10.2281 314.493 9.93307 314.866 9.73329C315.238 9.52485 315.662 9.42034 316.139 9.41978ZM325.651 12.8925L321.023 12.898C321.058 13.6346 321.258 14.1934 321.623 14.5743C321.987 14.9465 322.503 15.1322 323.171 15.1314C323.907 15.1305 324.583 14.8784 325.198 14.375L325.55 15.1416C325.273 15.4019 324.918 15.6103 324.484 15.7668C324.051 15.9147 323.609 15.9889 323.159 15.9894C322.171 15.9906 321.39 15.7012 320.818 15.1212C320.254 14.5412 319.971 13.7399 319.97 12.7172C319.969 12.0672 320.094 11.4951 320.345 11.0008C320.595 10.4978 320.946 10.1074 321.396 9.82952C321.855 9.55164 322.375 9.41235 322.956 9.41166C323.796 9.41066 324.455 9.68721 324.933 10.2413C325.41 10.7867 325.649 11.5405 325.65 12.5025L325.651 12.8925ZM322.97 10.2306C322.415 10.2313 321.969 10.4052 321.631 10.7522C321.302 11.0993 321.108 11.5892 321.048 12.2219L324.727 12.2176C324.709 11.5762 324.548 11.0868 324.244 10.7491C323.941 10.4028 323.516 10.23 322.97 10.2306Z" fill="#363636" fill-opacity="0.5"/>
<defs>
<filter id="filter0_d_1_2437" x="554" y="0.910522" width="230" height="81" filterUnits="userSpaceOnUse" color-interpolation-filters="sRGB">
<feFlood flood-opacity="0" result="BackgroundImageFix"/>
<feColorMatrix in="SourceAlpha" type="matrix" values="0 0 0 0 0 0 0 0 0 0 0 0 0 0 0 0 0 0 127 0" result="hardAlpha"/>
<feOffset dy="15"/>
<feGaussianBlur stdDeviation="7.5"/>
<feColorMatrix type="matrix" values="0 0 0 0 0.890196 0 0 0 0 0.721569 0 0 0 0 0.45098 0 0 0 0.15 0"/>
<feBlend mode="normal" in2="BackgroundImageFix" result="effect1_dropShadow_1_2437"/>
<feBlend mode="normal" in="SourceGraphic" in2="effect1_dropShadow_1_2437" result="shape"/>
</filter>
</defs>
</svg>
