<svg width="884" height="447" viewBox="0 0 884 447" fill="none" xmlns="http://www.w3.org/2000/svg">
<rect x="0.699249" y="0.987793" width="883" height="445.319" fill="#181818"/>
<mask id="mask0_1_14033" style="mask-type:alpha" maskUnits="userSpaceOnUse" x="0" y="0" width="884" height="447">
<rect x="0.699219" y="0.987793" width="883" height="445.319" fill="#C4C4C4"/>
</mask>
<g mask="url(#mask0_1_14033)">
<g filter="url(#filter0_d_1_14033)">
<rect x="342.199" y="360.905" width="200" height="51" fill="#E3B873"/>
</g>
<path d="M422.134 394.009C420.704 394.009 419.56 393.623 418.702 392.852L419.118 392.033C419.568 392.414 420.028 392.687 420.496 392.852C420.972 393.016 421.523 393.099 422.147 393.099C422.883 393.099 423.451 392.956 423.85 392.67C424.248 392.384 424.448 391.981 424.448 391.461C424.448 391.157 424.352 390.91 424.162 390.72C423.971 390.529 423.72 390.377 423.408 390.265C423.096 390.152 422.675 390.035 422.147 389.914C421.436 389.749 420.851 389.576 420.392 389.394C419.941 389.212 419.573 388.952 419.287 388.614C419.009 388.276 418.871 387.834 418.871 387.288C418.871 386.768 419.005 386.308 419.274 385.91C419.551 385.502 419.941 385.19 420.444 384.974C420.955 384.748 421.544 384.636 422.212 384.636C422.844 384.636 423.434 384.735 423.98 384.935C424.534 385.134 425.002 385.42 425.384 385.793L424.981 386.612C424.547 386.239 424.105 385.97 423.655 385.806C423.213 385.632 422.732 385.546 422.212 385.546C421.501 385.546 420.942 385.697 420.535 386.001C420.136 386.295 419.937 386.711 419.937 387.249C419.937 387.708 420.114 388.055 420.47 388.289C420.825 388.523 421.362 388.722 422.082 388.887C422.87 389.077 423.49 389.255 423.941 389.42C424.391 389.576 424.764 389.814 425.059 390.135C425.362 390.455 425.514 390.884 425.514 391.422C425.514 391.942 425.375 392.397 425.098 392.787C424.829 393.177 424.439 393.48 423.928 393.697C423.416 393.905 422.818 394.009 422.134 394.009ZM430.82 394.009C429.624 394.009 428.719 393.697 428.103 393.073C427.488 392.449 427.18 391.53 427.18 390.317V384.74H428.233V390.408C428.233 391.3 428.45 391.972 428.883 392.423C429.325 392.873 429.971 393.099 430.82 393.099C431.67 393.099 432.311 392.873 432.744 392.423C433.178 391.972 433.394 391.3 433.394 390.408V384.74H434.46V390.317C434.46 391.521 434.148 392.44 433.524 393.073C432.909 393.697 432.008 394.009 430.82 394.009ZM441.852 389.199C442.381 389.337 442.788 389.597 443.074 389.979C443.369 390.36 443.516 390.837 443.516 391.409C443.516 392.215 443.252 392.834 442.723 393.268C442.195 393.692 441.445 393.905 440.474 393.905H436.652V384.74H440.331C441.276 384.74 442.008 384.948 442.528 385.364C443.048 385.78 443.308 386.369 443.308 387.132C443.308 387.626 443.178 388.05 442.918 388.406C442.667 388.761 442.312 389.025 441.852 389.199ZM437.705 388.809H440.175C440.86 388.809 441.376 388.67 441.722 388.393C442.078 388.115 442.255 387.712 442.255 387.184C442.255 386.144 441.562 385.624 440.175 385.624H437.705V388.809ZM440.37 393.021C441.09 393.021 441.618 392.891 441.956 392.631C442.303 392.362 442.476 391.946 442.476 391.383C442.476 390.256 441.774 389.693 440.37 389.693H437.705V393.021H440.37ZM454.07 384.74V393.905H453.095L453.108 386.807L450.131 392.449H449.377L446.387 386.859L446.4 393.905H445.412V384.74H446.296L449.767 391.383L453.199 384.74H454.07ZM456.343 384.74H457.409V393.905H456.343V384.74ZM461.879 385.65H458.694V384.74H466.156V385.65H462.958V393.905H461.879V385.65Z" fill="white"/>
<rect width="231" height="1" transform="matrix(1 0 0 -1 182.199 152.227)" fill="white" fill-opacity="0.15"/>
<path d="M197.137 130.357L193.693 140.227H192.713L189.899 132.149L187.085 140.227H186.119L182.661 130.357H183.823L186.623 138.603L189.493 130.357L190.361 130.371L193.189 138.617L196.017 130.357H197.137ZM202.087 133.241C203.721 133.241 204.537 134.142 204.537 135.943V140.227H203.403V136.013C203.403 135.378 203.277 134.916 203.025 134.627C202.783 134.338 202.391 134.193 201.849 134.193C201.224 134.193 200.725 134.384 200.351 134.767C199.978 135.15 199.791 135.668 199.791 136.321V140.227H198.657V130.357H199.791V134.501C200.015 134.09 200.323 133.778 200.715 133.563C201.117 133.348 201.574 133.241 202.087 133.241ZM209.386 133.241C210.254 133.241 210.898 133.465 211.318 133.913C211.748 134.352 211.962 135.024 211.962 135.929V140.227H210.856V139.065C210.679 139.466 210.408 139.779 210.044 140.003C209.68 140.218 209.26 140.325 208.784 140.325C208.346 140.325 207.94 140.236 207.566 140.059C207.202 139.882 206.913 139.634 206.698 139.317C206.484 139 206.376 138.65 206.376 138.267C206.376 137.754 206.507 137.357 206.768 137.077C207.03 136.788 207.459 136.582 208.056 136.461C208.654 136.33 209.484 136.265 210.548 136.265H210.856V135.803C210.856 135.234 210.74 134.823 210.506 134.571C210.273 134.31 209.895 134.179 209.372 134.179C208.588 134.179 207.809 134.422 207.034 134.907L206.656 134.081C207.011 133.829 207.436 133.628 207.93 133.479C208.434 133.32 208.92 133.241 209.386 133.241ZM208.938 139.429C209.498 139.429 209.956 139.242 210.31 138.869C210.674 138.486 210.856 137.996 210.856 137.399V136.993H210.604C209.783 136.993 209.158 137.03 208.728 137.105C208.299 137.17 207.991 137.287 207.804 137.455C207.627 137.614 207.538 137.852 207.538 138.169C207.538 138.533 207.669 138.836 207.93 139.079C208.201 139.312 208.537 139.429 208.938 139.429ZM217.034 139.415C217.24 139.415 217.445 139.401 217.65 139.373L217.594 140.269C217.38 140.306 217.146 140.325 216.894 140.325C216.073 140.325 215.452 140.11 215.032 139.681C214.622 139.252 214.416 138.654 214.416 137.889V134.305H213.086V133.409H214.416V131.337H215.55V133.409H217.482V134.305H215.55V137.805C215.55 138.878 216.045 139.415 217.034 139.415ZM222.405 133.409H223.539V140.227H222.405V133.409ZM223.665 130.455V131.729H222.293V130.455H223.665ZM227.969 140.325C226.821 140.325 225.911 140.031 225.239 139.443L225.617 138.603C225.981 138.892 226.35 139.102 226.723 139.233C227.106 139.354 227.535 139.415 228.011 139.415C228.515 139.415 228.898 139.331 229.159 139.163C229.43 138.986 229.565 138.734 229.565 138.407C229.565 138.136 229.477 137.922 229.299 137.763C229.122 137.604 228.828 137.478 228.417 137.385L227.269 137.119C226.691 136.988 226.247 136.764 225.939 136.447C225.631 136.13 225.477 135.738 225.477 135.271C225.477 134.664 225.715 134.174 226.191 133.801C226.667 133.428 227.302 133.241 228.095 133.241C228.571 133.241 229.024 133.32 229.453 133.479C229.883 133.628 230.242 133.848 230.531 134.137L230.153 134.963C229.528 134.431 228.842 134.165 228.095 134.165C227.619 134.165 227.246 134.258 226.975 134.445C226.714 134.622 226.583 134.874 226.583 135.201C226.583 135.472 226.663 135.691 226.821 135.859C226.989 136.018 227.255 136.139 227.619 136.223L228.781 136.503C229.416 136.652 229.887 136.881 230.195 137.189C230.503 137.488 230.657 137.88 230.657 138.365C230.657 138.962 230.415 139.438 229.929 139.793C229.453 140.148 228.8 140.325 227.969 140.325ZM242.015 133.423L237.983 142.747H236.821L237.969 140.143L235.085 133.423H236.289L238.571 138.995L240.881 133.423H242.015ZM245.933 140.325C245.289 140.325 244.719 140.18 244.225 139.891C243.739 139.602 243.361 139.191 243.091 138.659C242.829 138.118 242.699 137.492 242.699 136.783C242.699 136.074 242.829 135.453 243.091 134.921C243.361 134.38 243.739 133.964 244.225 133.675C244.719 133.386 245.289 133.241 245.933 133.241C246.577 133.241 247.146 133.386 247.641 133.675C248.135 133.964 248.513 134.38 248.775 134.921C249.045 135.453 249.181 136.074 249.181 136.783C249.181 137.492 249.045 138.118 248.775 138.659C248.513 139.191 248.135 139.602 247.641 139.891C247.146 140.18 246.577 140.325 245.933 140.325ZM245.933 139.387C246.605 139.387 247.118 139.168 247.473 138.729C247.837 138.281 248.019 137.632 248.019 136.783C248.019 135.952 247.837 135.313 247.473 134.865C247.109 134.408 246.595 134.179 245.933 134.179C245.27 134.179 244.757 134.408 244.393 134.865C244.029 135.313 243.847 135.952 243.847 136.783C243.847 137.623 244.024 138.267 244.379 138.715C244.743 139.163 245.261 139.387 245.933 139.387ZM256.61 133.409V140.227H255.504V139.065C255.29 139.476 254.986 139.788 254.594 140.003C254.212 140.218 253.778 140.325 253.292 140.325C252.48 140.325 251.869 140.101 251.458 139.653C251.048 139.196 250.842 138.524 250.842 137.637V133.409H251.976V137.609C251.976 138.216 252.098 138.664 252.34 138.953C252.583 139.233 252.966 139.373 253.488 139.373C254.086 139.373 254.566 139.182 254.93 138.799C255.294 138.407 255.476 137.894 255.476 137.259V133.409H256.61ZM262.582 134.221L261.84 134.291C261.14 134.356 260.631 134.576 260.314 134.949C260.006 135.322 259.852 135.784 259.852 136.335V140.227H258.718V133.409H259.824V134.599C260.207 133.806 260.958 133.362 262.078 133.269L262.484 133.241L262.582 134.221ZM270.693 133.241C272.326 133.241 273.143 134.142 273.143 135.943V140.227H272.009V136.013C272.009 135.378 271.883 134.916 271.631 134.627C271.388 134.338 270.996 134.193 270.455 134.193C269.83 134.193 269.33 134.384 268.957 134.767C268.584 135.15 268.397 135.668 268.397 136.321V140.227H267.263V133.409H268.383V134.529C268.607 134.109 268.92 133.792 269.321 133.577C269.722 133.353 270.18 133.241 270.693 133.241ZM277.992 133.241C278.86 133.241 279.504 133.465 279.924 133.913C280.353 134.352 280.568 135.024 280.568 135.929V140.227H279.462V139.065C279.285 139.466 279.014 139.779 278.65 140.003C278.286 140.218 277.866 140.325 277.39 140.325C276.951 140.325 276.545 140.236 276.172 140.059C275.808 139.882 275.519 139.634 275.304 139.317C275.089 139 274.982 138.65 274.982 138.267C274.982 137.754 275.113 137.357 275.374 137.077C275.635 136.788 276.065 136.582 276.662 136.461C277.259 136.33 278.09 136.265 279.154 136.265H279.462V135.803C279.462 135.234 279.345 134.823 279.112 134.571C278.879 134.31 278.501 134.179 277.978 134.179C277.194 134.179 276.415 134.422 275.64 134.907L275.262 134.081C275.617 133.829 276.041 133.628 276.536 133.479C277.04 133.32 277.525 133.241 277.992 133.241ZM277.544 139.429C278.104 139.429 278.561 139.242 278.916 138.869C279.28 138.486 279.462 137.996 279.462 137.399V136.993H279.21C278.389 136.993 277.763 137.03 277.334 137.105C276.905 137.17 276.597 137.287 276.41 137.455C276.233 137.614 276.144 137.852 276.144 138.169C276.144 138.533 276.275 138.836 276.536 139.079C276.807 139.312 277.143 139.429 277.544 139.429ZM290.232 133.241C291.744 133.241 292.5 134.142 292.5 135.943V140.227H291.366V135.999C291.366 135.374 291.254 134.916 291.03 134.627C290.815 134.338 290.465 134.193 289.98 134.193C289.41 134.193 288.962 134.384 288.636 134.767C288.309 135.15 288.146 135.672 288.146 136.335V140.227H287.012V135.999C287.012 135.364 286.9 134.907 286.676 134.627C286.452 134.338 286.097 134.193 285.612 134.193C285.042 134.193 284.594 134.384 284.268 134.767C283.941 135.15 283.778 135.672 283.778 136.335V140.227H282.644V133.409H283.764V134.487C283.969 134.086 284.254 133.778 284.618 133.563C284.982 133.348 285.402 133.241 285.878 133.241C286.932 133.241 287.628 133.689 287.964 134.585C288.16 134.165 288.458 133.838 288.86 133.605C289.261 133.362 289.718 133.241 290.232 133.241ZM300.278 136.993H295.294C295.331 137.786 295.546 138.388 295.938 138.799C296.33 139.2 296.885 139.401 297.604 139.401C298.397 139.401 299.125 139.13 299.788 138.589L300.166 139.415C299.867 139.695 299.484 139.919 299.018 140.087C298.551 140.246 298.075 140.325 297.59 140.325C296.526 140.325 295.686 140.012 295.07 139.387C294.463 138.762 294.16 137.898 294.16 136.797C294.16 136.097 294.295 135.481 294.566 134.949C294.836 134.408 295.214 133.988 295.7 133.689C296.194 133.39 296.754 133.241 297.38 133.241C298.285 133.241 298.994 133.54 299.508 134.137C300.021 134.725 300.278 135.537 300.278 136.573V136.993ZM297.394 134.123C296.796 134.123 296.316 134.31 295.952 134.683C295.597 135.056 295.387 135.584 295.322 136.265H299.284C299.265 135.574 299.092 135.047 298.766 134.683C298.439 134.31 297.982 134.123 297.394 134.123ZM303.208 133.409V134.851H301.78V133.409H303.208ZM303.208 138.799V140.227H301.78V138.799H303.208Z" fill="white"/>
<path d="M190.675 111.062V120.227H189.856L184.331 112.856V120.227H183.33V111.062H184.149L189.674 118.433V111.062H190.675ZM195.359 113.74C196.165 113.74 196.763 113.948 197.153 114.364C197.551 114.771 197.751 115.395 197.751 116.236V120.227H196.724V119.148C196.559 119.521 196.308 119.811 195.97 120.019C195.632 120.218 195.242 120.318 194.8 120.318C194.392 120.318 194.015 120.236 193.669 120.071C193.331 119.906 193.062 119.677 192.863 119.382C192.663 119.087 192.564 118.762 192.564 118.407C192.564 117.93 192.685 117.562 192.928 117.302C193.17 117.033 193.569 116.843 194.124 116.73C194.678 116.609 195.45 116.548 196.438 116.548H196.724V116.119C196.724 115.59 196.615 115.209 196.399 114.975C196.182 114.732 195.831 114.611 195.346 114.611C194.618 114.611 193.894 114.836 193.175 115.287L192.824 114.52C193.153 114.286 193.547 114.1 194.007 113.961C194.475 113.814 194.925 113.74 195.359 113.74ZM194.943 119.486C195.463 119.486 195.887 119.313 196.217 118.966C196.555 118.611 196.724 118.156 196.724 117.601V117.224H196.49C195.727 117.224 195.146 117.259 194.748 117.328C194.349 117.389 194.063 117.497 193.89 117.653C193.725 117.8 193.643 118.021 193.643 118.316C193.643 118.654 193.764 118.936 194.007 119.161C194.258 119.378 194.57 119.486 194.943 119.486ZM206.724 113.74C208.128 113.74 208.83 114.576 208.83 116.249V120.227H207.777V116.301C207.777 115.72 207.673 115.296 207.465 115.027C207.266 114.758 206.941 114.624 206.49 114.624C205.961 114.624 205.545 114.802 205.242 115.157C204.939 115.512 204.787 115.998 204.787 116.613V120.227H203.734V116.301C203.734 115.712 203.63 115.287 203.422 115.027C203.214 114.758 202.885 114.624 202.434 114.624C201.905 114.624 201.489 114.802 201.186 115.157C200.883 115.512 200.731 115.998 200.731 116.613V120.227H199.678V113.896H200.718V114.897C200.909 114.524 201.173 114.238 201.511 114.039C201.849 113.84 202.239 113.74 202.681 113.74C203.66 113.74 204.306 114.156 204.618 114.988C204.8 114.598 205.077 114.295 205.45 114.078C205.823 113.853 206.247 113.74 206.724 113.74ZM216.052 117.224H211.424C211.459 117.961 211.658 118.52 212.022 118.901C212.386 119.274 212.902 119.46 213.569 119.46C214.306 119.46 214.982 119.209 215.597 118.706L215.948 119.473C215.671 119.733 215.316 119.941 214.882 120.097C214.449 120.244 214.007 120.318 213.556 120.318C212.568 120.318 211.788 120.028 211.216 119.447C210.653 118.866 210.371 118.065 210.371 117.042C210.371 116.392 210.497 115.82 210.748 115.326C211 114.823 211.351 114.433 211.801 114.156C212.261 113.879 212.781 113.74 213.361 113.74C214.202 113.74 214.861 114.017 215.337 114.572C215.814 115.118 216.052 115.872 216.052 116.834V117.224ZM213.374 114.559C212.82 114.559 212.373 114.732 212.035 115.079C211.706 115.426 211.511 115.915 211.45 116.548H215.129C215.112 115.907 214.952 115.417 214.648 115.079C214.345 114.732 213.92 114.559 213.374 114.559Z" fill="white" fill-opacity="0.5"/>
<rect width="516.818" height="1" transform="matrix(1 0 0 -1 182.199 245.989)" fill="white" fill-opacity="0.15"/>
<path d="M183.417 224.119H184.565V233.989H183.417V224.119ZM200.829 227.171L198.295 233.989H197.203L195.285 228.711L193.353 233.989H192.275L189.741 227.171H190.917L192.849 232.645L194.823 227.171H195.803L197.749 232.645L199.695 227.171H200.829ZM204.875 227.003C205.743 227.003 206.387 227.227 206.807 227.675C207.236 228.113 207.451 228.785 207.451 229.691V233.989H206.345V232.827C206.167 233.228 205.897 233.541 205.533 233.765C205.169 233.979 204.749 234.087 204.273 234.087C203.834 234.087 203.428 233.998 203.055 233.821C202.691 233.643 202.401 233.396 202.187 233.079C201.972 232.761 201.865 232.411 201.865 232.029C201.865 231.515 201.995 231.119 202.257 230.839C202.518 230.549 202.947 230.344 203.545 230.223C204.142 230.092 204.973 230.027 206.037 230.027H206.345V229.565C206.345 228.995 206.228 228.585 205.995 228.333C205.761 228.071 205.383 227.941 204.861 227.941C204.077 227.941 203.297 228.183 202.523 228.669L202.145 227.843C202.499 227.591 202.924 227.39 203.419 227.241C203.923 227.082 204.408 227.003 204.875 227.003ZM204.427 233.191C204.987 233.191 205.444 233.004 205.799 232.631C206.163 232.248 206.345 231.758 206.345 231.161V230.755H206.093C205.271 230.755 204.646 230.792 204.217 230.867C203.787 230.932 203.479 231.049 203.293 231.217C203.115 231.375 203.027 231.613 203.027 231.931C203.027 232.295 203.157 232.598 203.419 232.841C203.689 233.074 204.025 233.191 204.427 233.191ZM212.957 227.003C214.59 227.003 215.407 227.903 215.407 229.705V233.989H214.273V229.775C214.273 229.14 214.147 228.678 213.895 228.389C213.652 228.099 213.26 227.955 212.719 227.955C212.093 227.955 211.594 228.146 211.221 228.529C210.847 228.911 210.661 229.429 210.661 230.083V233.989H209.527V227.171H210.647V228.291C210.871 227.871 211.183 227.553 211.585 227.339C211.986 227.115 212.443 227.003 212.957 227.003ZM220.48 233.177C220.685 233.177 220.89 233.163 221.096 233.135L221.04 234.031C220.825 234.068 220.592 234.087 220.34 234.087C219.518 234.087 218.898 233.872 218.478 233.443C218.067 233.013 217.862 232.416 217.862 231.651V228.067H216.532V227.171H217.862V225.099H218.996V227.171H220.928V228.067H218.996V231.567C218.996 232.64 219.49 233.177 220.48 233.177ZM228.847 233.177C229.052 233.177 229.257 233.163 229.463 233.135L229.407 234.031C229.192 234.068 228.959 234.087 228.707 234.087C227.885 234.087 227.265 233.872 226.845 233.443C226.434 233.013 226.229 232.416 226.229 231.651V228.067H224.899V227.171H226.229V225.099H227.363V227.171H229.295V228.067H227.363V231.567C227.363 232.64 227.857 233.177 228.847 233.177ZM233.437 234.087C232.793 234.087 232.223 233.942 231.729 233.653C231.243 233.363 230.865 232.953 230.595 232.421C230.333 231.879 230.203 231.254 230.203 230.545C230.203 229.835 230.333 229.215 230.595 228.683C230.865 228.141 231.243 227.726 231.729 227.437C232.223 227.147 232.793 227.003 233.437 227.003C234.081 227.003 234.65 227.147 235.145 227.437C235.639 227.726 236.017 228.141 236.279 228.683C236.549 229.215 236.685 229.835 236.685 230.545C236.685 231.254 236.549 231.879 236.279 232.421C236.017 232.953 235.639 233.363 235.145 233.653C234.65 233.942 234.081 234.087 233.437 234.087ZM233.437 233.149C234.109 233.149 234.622 232.929 234.977 232.491C235.341 232.043 235.523 231.394 235.523 230.545C235.523 229.714 235.341 229.075 234.977 228.627C234.613 228.169 234.099 227.941 233.437 227.941C232.774 227.941 232.261 228.169 231.897 228.627C231.533 229.075 231.351 229.714 231.351 230.545C231.351 231.385 231.528 232.029 231.883 232.477C232.247 232.925 232.765 233.149 233.437 233.149ZM246.59 233.989L243.118 230.727V233.989H241.984V224.119H243.118V230.265L246.296 227.185H247.738L244.35 230.447L248.06 233.989H246.59ZM252.414 227.003C254.047 227.003 254.864 227.903 254.864 229.705V233.989H253.73V229.775C253.73 229.14 253.604 228.678 253.352 228.389C253.109 228.099 252.717 227.955 252.176 227.955C251.55 227.955 251.051 228.146 250.678 228.529C250.304 228.911 250.118 229.429 250.118 230.083V233.989H248.984V227.171H250.104V228.291C250.328 227.871 250.64 227.553 251.042 227.339C251.443 227.115 251.9 227.003 252.414 227.003ZM259.769 234.087C259.125 234.087 258.555 233.942 258.061 233.653C257.575 233.363 257.197 232.953 256.927 232.421C256.665 231.879 256.535 231.254 256.535 230.545C256.535 229.835 256.665 229.215 256.927 228.683C257.197 228.141 257.575 227.726 258.061 227.437C258.555 227.147 259.125 227.003 259.769 227.003C260.413 227.003 260.982 227.147 261.477 227.437C261.971 227.726 262.349 228.141 262.611 228.683C262.881 229.215 263.017 229.835 263.017 230.545C263.017 231.254 262.881 231.879 262.611 232.421C262.349 232.953 261.971 233.363 261.477 233.653C260.982 233.942 260.413 234.087 259.769 234.087ZM259.769 233.149C260.441 233.149 260.954 232.929 261.309 232.491C261.673 232.043 261.855 231.394 261.855 230.545C261.855 229.714 261.673 229.075 261.309 228.627C260.945 228.169 260.431 227.941 259.769 227.941C259.106 227.941 258.593 228.169 258.229 228.627C257.865 229.075 257.683 229.714 257.683 230.545C257.683 231.385 257.86 232.029 258.215 232.477C258.579 232.925 259.097 233.149 259.769 233.149ZM275.012 227.171L272.478 233.989H271.386L269.468 228.711L267.536 233.989H266.458L263.924 227.171H265.1L267.032 232.645L269.006 227.171H269.986L271.932 232.645L273.878 227.171H275.012ZM277.669 227.171V228.613H276.241V227.171H277.669ZM277.669 232.561V233.989H276.241V232.561H277.669Z" fill="white"/>
<path d="M188.764 213.82C188.955 213.88 189.124 213.98 189.271 214.119C189.419 214.266 189.57 214.465 189.726 214.717L190.597 216.121L189.7 216.589L188.621 214.834C188.318 214.34 187.833 214.093 187.165 214.093C186.316 214.093 185.575 213.902 184.942 213.521C184.318 213.139 183.837 212.598 183.499 211.896C183.161 211.194 182.992 210.366 182.992 209.413C182.992 208.451 183.157 207.619 183.486 206.917C183.824 206.206 184.305 205.664 184.929 205.292C185.562 204.91 186.307 204.72 187.165 204.72C188.015 204.72 188.751 204.91 189.375 205.292C190.008 205.664 190.493 206.206 190.831 206.917C191.169 207.619 191.338 208.446 191.338 209.4C191.338 210.509 191.113 211.449 190.662 212.221C190.22 212.983 189.588 213.516 188.764 213.82ZM184.084 209.4C184.084 210.604 184.353 211.536 184.89 212.195C185.436 212.853 186.195 213.183 187.165 213.183C188.136 213.183 188.89 212.858 189.427 212.208C189.973 211.549 190.246 210.613 190.246 209.4C190.246 208.186 189.978 207.255 189.44 206.605C188.903 205.955 188.145 205.63 187.165 205.63C186.195 205.63 185.436 205.959 184.89 206.618C184.353 207.268 184.084 208.195 184.084 209.4ZM198.432 207.658V213.989H197.405V212.91C197.206 213.291 196.924 213.581 196.56 213.781C196.205 213.98 195.802 214.08 195.351 214.08C194.597 214.08 194.029 213.872 193.648 213.456C193.267 213.031 193.076 212.407 193.076 211.584V207.658H194.129V211.558C194.129 212.121 194.242 212.537 194.467 212.806C194.692 213.066 195.048 213.196 195.533 213.196C196.088 213.196 196.534 213.018 196.872 212.663C197.21 212.299 197.379 211.822 197.379 211.233V207.658H198.432ZM205.693 210.986H201.065C201.1 211.722 201.299 212.281 201.663 212.663C202.027 213.035 202.543 213.222 203.21 213.222C203.947 213.222 204.623 212.97 205.238 212.468L205.589 213.235C205.312 213.495 204.956 213.703 204.523 213.859C204.09 214.006 203.648 214.08 203.197 214.08C202.209 214.08 201.429 213.789 200.857 213.209C200.294 212.628 200.012 211.826 200.012 210.804C200.012 210.154 200.138 209.582 200.389 209.088C200.64 208.585 200.991 208.195 201.442 207.918C201.901 207.64 202.421 207.502 203.002 207.502C203.843 207.502 204.501 207.779 204.978 208.334C205.455 208.88 205.693 209.634 205.693 210.596V210.986ZM203.015 208.321C202.46 208.321 202.014 208.494 201.676 208.841C201.347 209.187 201.152 209.677 201.091 210.31H204.77C204.753 209.668 204.592 209.179 204.289 208.841C203.986 208.494 203.561 208.321 203.015 208.321ZM209.389 214.08C208.323 214.08 207.478 213.807 206.854 213.261L207.205 212.481C207.543 212.749 207.886 212.944 208.232 213.066C208.588 213.178 208.986 213.235 209.428 213.235C209.896 213.235 210.252 213.157 210.494 213.001C210.746 212.836 210.871 212.602 210.871 212.299C210.871 212.047 210.789 211.848 210.624 211.701C210.46 211.553 210.187 211.436 209.805 211.35L208.739 211.103C208.202 210.981 207.79 210.773 207.504 210.479C207.218 210.184 207.075 209.82 207.075 209.387C207.075 208.823 207.296 208.368 207.738 208.022C208.18 207.675 208.77 207.502 209.506 207.502C209.948 207.502 210.369 207.575 210.767 207.723C211.166 207.861 211.5 208.065 211.768 208.334L211.417 209.101C210.837 208.607 210.2 208.36 209.506 208.36C209.064 208.36 208.718 208.446 208.466 208.62C208.224 208.784 208.102 209.018 208.102 209.322C208.102 209.573 208.176 209.777 208.323 209.933C208.479 210.08 208.726 210.193 209.064 210.271L210.143 210.531C210.733 210.669 211.17 210.882 211.456 211.168C211.742 211.445 211.885 211.809 211.885 212.26C211.885 212.814 211.66 213.256 211.209 213.586C210.767 213.915 210.161 214.08 209.389 214.08ZM216.209 213.235C216.4 213.235 216.59 213.222 216.781 213.196L216.729 214.028C216.53 214.062 216.313 214.08 216.079 214.08C215.316 214.08 214.74 213.88 214.35 213.482C213.969 213.083 213.778 212.528 213.778 211.818V208.49H212.543V207.658H213.778V205.734H214.831V207.658H216.625V208.49H214.831V211.74C214.831 212.736 215.29 213.235 216.209 213.235ZM217.845 207.658H218.898V213.989H217.845V207.658ZM219.015 204.915V206.098H217.741V204.915H219.015ZM223.493 214.08C222.895 214.08 222.366 213.945 221.907 213.677C221.456 213.408 221.105 213.027 220.854 212.533C220.611 212.03 220.49 211.449 220.49 210.791C220.49 210.132 220.611 209.556 220.854 209.062C221.105 208.559 221.456 208.173 221.907 207.905C222.366 207.636 222.895 207.502 223.493 207.502C224.091 207.502 224.619 207.636 225.079 207.905C225.538 208.173 225.889 208.559 226.132 209.062C226.383 209.556 226.509 210.132 226.509 210.791C226.509 211.449 226.383 212.03 226.132 212.533C225.889 213.027 225.538 213.408 225.079 213.677C224.619 213.945 224.091 214.08 223.493 214.08ZM223.493 213.209C224.117 213.209 224.593 213.005 224.923 212.598C225.261 212.182 225.43 211.579 225.43 210.791C225.43 210.019 225.261 209.426 224.923 209.01C224.585 208.585 224.108 208.373 223.493 208.373C222.877 208.373 222.401 208.585 222.063 209.01C221.725 209.426 221.556 210.019 221.556 210.791C221.556 211.571 221.72 212.169 222.05 212.585C222.388 213.001 222.869 213.209 223.493 213.209ZM231.262 207.502C232.779 207.502 233.537 208.338 233.537 210.011V213.989H232.484V210.076C232.484 209.486 232.367 209.057 232.133 208.789C231.908 208.52 231.544 208.386 231.041 208.386C230.461 208.386 229.997 208.563 229.65 208.919C229.304 209.274 229.13 209.755 229.13 210.362V213.989H228.077V207.658H229.117V208.698C229.325 208.308 229.616 208.013 229.988 207.814C230.361 207.606 230.786 207.502 231.262 207.502Z" fill="white" fill-opacity="0.5"/>
<rect width="231" height="1" transform="matrix(1 0 0 -1 471.199 152.227)" fill="white" fill-opacity="0.15"/>
<path d="M475.973 135.565V140.227H474.825V135.551L470.947 130.357H472.277L475.413 134.613L478.549 130.357H479.851L475.973 135.565ZM482.419 140.325C481.775 140.325 481.206 140.18 480.711 139.891C480.226 139.602 479.848 139.191 479.577 138.659C479.316 138.118 479.185 137.492 479.185 136.783C479.185 136.074 479.316 135.453 479.577 134.921C479.848 134.38 480.226 133.964 480.711 133.675C481.206 133.386 481.775 133.241 482.419 133.241C483.063 133.241 483.632 133.386 484.127 133.675C484.622 133.964 485 134.38 485.261 134.921C485.532 135.453 485.667 136.074 485.667 136.783C485.667 137.492 485.532 138.118 485.261 138.659C485 139.191 484.622 139.602 484.127 139.891C483.632 140.18 483.063 140.325 482.419 140.325ZM482.419 139.387C483.091 139.387 483.604 139.168 483.959 138.729C484.323 138.281 484.505 137.632 484.505 136.783C484.505 135.952 484.323 135.313 483.959 134.865C483.595 134.408 483.082 134.179 482.419 134.179C481.756 134.179 481.243 134.408 480.879 134.865C480.515 135.313 480.333 135.952 480.333 136.783C480.333 137.623 480.51 138.267 480.865 138.715C481.229 139.163 481.747 139.387 482.419 139.387ZM493.097 133.409V140.227H491.991V139.065C491.776 139.476 491.473 139.788 491.081 140.003C490.698 140.218 490.264 140.325 489.779 140.325C488.967 140.325 488.355 140.101 487.945 139.653C487.534 139.196 487.329 138.524 487.329 137.637V133.409H488.463V137.609C488.463 138.216 488.584 138.664 488.827 138.953C489.069 139.233 489.452 139.373 489.975 139.373C490.572 139.373 491.053 139.182 491.417 138.799C491.781 138.407 491.963 137.894 491.963 137.259V133.409H493.097ZM499.068 134.221L498.326 134.291C497.626 134.356 497.118 134.576 496.8 134.949C496.492 135.322 496.338 135.784 496.338 136.335V140.227H495.204V133.409H496.31V134.599C496.693 133.806 497.444 133.362 498.564 133.269L498.97 133.241L499.068 134.221ZM507.179 133.241C507.777 133.241 508.304 133.39 508.761 133.689C509.219 133.988 509.573 134.408 509.825 134.949C510.077 135.481 510.203 136.102 510.203 136.811C510.203 137.52 510.077 138.141 509.825 138.673C509.573 139.196 509.219 139.602 508.761 139.891C508.313 140.18 507.786 140.325 507.179 140.325C506.647 140.325 506.181 140.208 505.779 139.975C505.387 139.742 505.089 139.41 504.883 138.981V142.747H503.749V133.409H504.883V134.585C505.089 134.156 505.387 133.824 505.779 133.591C506.181 133.358 506.647 133.241 507.179 133.241ZM506.955 139.387C507.618 139.387 508.131 139.163 508.495 138.715C508.859 138.267 509.041 137.632 509.041 136.811C509.041 135.99 508.859 135.35 508.495 134.893C508.131 134.426 507.618 134.193 506.955 134.193C506.293 134.193 505.779 134.417 505.415 134.865C505.061 135.313 504.883 135.952 504.883 136.783C504.883 137.614 505.061 138.258 505.415 138.715C505.779 139.163 506.293 139.387 506.955 139.387ZM515.328 133.241C516.961 133.241 517.778 134.142 517.778 135.943V140.227H516.644V136.013C516.644 135.378 516.518 134.916 516.266 134.627C516.023 134.338 515.631 134.193 515.09 134.193C514.464 134.193 513.965 134.384 513.592 134.767C513.218 135.15 513.032 135.668 513.032 136.321V140.227H511.898V130.357H513.032V134.501C513.256 134.09 513.564 133.778 513.956 133.563C514.357 133.348 514.814 133.241 515.328 133.241ZM522.683 140.325C522.039 140.325 521.469 140.18 520.975 139.891C520.489 139.602 520.111 139.191 519.841 138.659C519.579 138.118 519.449 137.492 519.449 136.783C519.449 136.074 519.579 135.453 519.841 134.921C520.111 134.38 520.489 133.964 520.975 133.675C521.469 133.386 522.039 133.241 522.683 133.241C523.327 133.241 523.896 133.386 524.391 133.675C524.885 133.964 525.263 134.38 525.525 134.921C525.795 135.453 525.931 136.074 525.931 136.783C525.931 137.492 525.795 138.118 525.525 138.659C525.263 139.191 524.885 139.602 524.391 139.891C523.896 140.18 523.327 140.325 522.683 140.325ZM522.683 139.387C523.355 139.387 523.868 139.168 524.223 138.729C524.587 138.281 524.769 137.632 524.769 136.783C524.769 135.952 524.587 135.313 524.223 134.865C523.859 134.408 523.345 134.179 522.683 134.179C522.02 134.179 521.507 134.408 521.143 134.865C520.779 135.313 520.597 135.952 520.597 136.783C520.597 137.623 520.774 138.267 521.129 138.715C521.493 139.163 522.011 139.387 522.683 139.387ZM531.05 133.241C532.684 133.241 533.5 134.142 533.5 135.943V140.227H532.366V136.013C532.366 135.378 532.24 134.916 531.988 134.627C531.746 134.338 531.354 134.193 530.812 134.193C530.187 134.193 529.688 134.384 529.314 134.767C528.941 135.15 528.754 135.668 528.754 136.321V140.227H527.62V133.409H528.74V134.529C528.964 134.109 529.277 133.792 529.678 133.577C530.08 133.353 530.537 133.241 531.05 133.241ZM541.289 136.993H536.305C536.343 137.786 536.557 138.388 536.949 138.799C537.341 139.2 537.897 139.401 538.615 139.401C539.409 139.401 540.137 139.13 540.799 138.589L541.177 139.415C540.879 139.695 540.496 139.919 540.029 140.087C539.563 140.246 539.087 140.325 538.601 140.325C537.537 140.325 536.697 140.012 536.081 139.387C535.475 138.762 535.171 137.898 535.171 136.797C535.171 136.097 535.307 135.481 535.577 134.949C535.848 134.408 536.226 133.988 536.711 133.689C537.206 133.39 537.766 133.241 538.391 133.241C539.297 133.241 540.006 133.54 540.519 134.137C541.033 134.725 541.289 135.537 541.289 136.573V136.993ZM538.405 134.123C537.808 134.123 537.327 134.31 536.963 134.683C536.609 135.056 536.399 135.584 536.333 136.265H540.295C540.277 135.574 540.104 135.047 539.777 134.683C539.451 134.31 538.993 134.123 538.405 134.123ZM550 133.241C551.633 133.241 552.45 134.142 552.45 135.943V140.227H551.316V136.013C551.316 135.378 551.19 134.916 550.938 134.627C550.695 134.338 550.303 134.193 549.762 134.193C549.136 134.193 548.637 134.384 548.264 134.767C547.89 135.15 547.704 135.668 547.704 136.321V140.227H546.57V133.409H547.69V134.529C547.914 134.109 548.226 133.792 548.628 133.577C549.029 133.353 549.486 133.241 550 133.241ZM560.267 133.409V140.227H559.161V139.065C558.946 139.476 558.643 139.788 558.251 140.003C557.868 140.218 557.434 140.325 556.949 140.325C556.137 140.325 555.525 140.101 555.115 139.653C554.704 139.196 554.499 138.524 554.499 137.637V133.409H555.633V137.609C555.633 138.216 555.754 138.664 555.997 138.953C556.239 139.233 556.622 139.373 557.145 139.373C557.742 139.373 558.223 139.182 558.587 138.799C558.951 138.407 559.133 137.894 559.133 137.259V133.409H560.267ZM569.962 133.241C571.474 133.241 572.23 134.142 572.23 135.943V140.227H571.096V135.999C571.096 135.374 570.984 134.916 570.76 134.627C570.546 134.338 570.196 134.193 569.71 134.193C569.141 134.193 568.693 134.384 568.366 134.767C568.04 135.15 567.876 135.672 567.876 136.335V140.227H566.742V135.999C566.742 135.364 566.63 134.907 566.406 134.627C566.182 134.338 565.828 134.193 565.342 134.193C564.773 134.193 564.325 134.384 563.998 134.767C563.672 135.15 563.508 135.672 563.508 136.335V140.227H562.374V133.409H563.494V134.487C563.7 134.086 563.984 133.778 564.348 133.563C564.712 133.348 565.132 133.241 565.608 133.241C566.663 133.241 567.358 133.689 567.694 134.585C567.89 134.165 568.189 133.838 568.59 133.605C568.992 133.362 569.449 133.241 569.962 133.241ZM577.726 133.241C578.323 133.241 578.851 133.386 579.308 133.675C579.765 133.964 580.12 134.375 580.372 134.907C580.624 135.439 580.75 136.055 580.75 136.755C580.75 137.464 580.624 138.09 580.372 138.631C580.12 139.163 579.765 139.578 579.308 139.877C578.851 140.176 578.323 140.325 577.726 140.325C577.194 140.325 576.727 140.208 576.326 139.975C575.934 139.742 575.635 139.41 575.43 138.981V140.227H574.296V130.357H575.43V134.585C575.635 134.156 575.934 133.824 576.326 133.591C576.727 133.358 577.194 133.241 577.726 133.241ZM577.502 139.387C578.165 139.387 578.678 139.158 579.042 138.701C579.406 138.234 579.588 137.586 579.588 136.755C579.588 135.943 579.406 135.313 579.042 134.865C578.678 134.417 578.165 134.193 577.502 134.193C576.839 134.193 576.326 134.417 575.962 134.865C575.607 135.313 575.43 135.952 575.43 136.783C575.43 137.614 575.607 138.258 575.962 138.715C576.326 139.163 576.839 139.387 577.502 139.387ZM588.157 136.993H583.173C583.21 137.786 583.425 138.388 583.817 138.799C584.209 139.2 584.764 139.401 585.483 139.401C586.276 139.401 587.004 139.13 587.667 138.589L588.045 139.415C587.746 139.695 587.363 139.919 586.897 140.087C586.43 140.246 585.954 140.325 585.469 140.325C584.405 140.325 583.565 140.012 582.949 139.387C582.342 138.762 582.039 137.898 582.039 136.797C582.039 136.097 582.174 135.481 582.445 134.949C582.715 134.408 583.093 133.988 583.579 133.689C584.073 133.39 584.633 133.241 585.259 133.241C586.164 133.241 586.873 133.54 587.387 134.137C587.9 134.725 588.157 135.537 588.157 136.573V136.993ZM585.273 134.123C584.675 134.123 584.195 134.31 583.831 134.683C583.476 135.056 583.266 135.584 583.201 136.265H587.163C587.144 135.574 586.971 135.047 586.645 134.683C586.318 134.31 585.861 134.123 585.273 134.123ZM593.691 134.221L592.949 134.291C592.249 134.356 591.741 134.576 591.423 134.949C591.115 135.322 590.961 135.784 590.961 136.335V140.227H589.827V133.409H590.933V134.599C591.316 133.806 592.067 133.362 593.187 133.269L593.593 133.241L593.691 134.221ZM596.201 133.409V134.851H594.773V133.409H596.201ZM596.201 138.799V140.227H594.773V138.799H596.201Z" fill="white"/>
<path d="M472.328 111.089L475.955 111.085C476.917 111.084 477.662 111.317 478.191 111.784C478.729 112.252 478.999 112.914 479 113.772C479.001 114.63 478.733 115.298 478.196 115.775C477.659 116.252 476.914 116.492 475.961 116.493L473.4 116.496L473.405 120.253L472.339 120.254L472.328 111.089ZM475.856 115.609C477.251 115.607 477.948 114.995 477.947 113.773C477.945 112.569 477.247 111.967 475.852 111.969L473.395 111.972L473.399 115.612L475.856 115.609ZM483.739 113.754C485.255 113.752 486.015 114.587 486.017 116.26L486.021 120.238L484.968 120.239L484.964 116.326C484.963 115.737 484.846 115.308 484.611 115.04C484.386 114.771 484.021 114.637 483.519 114.638C482.938 114.639 482.475 114.817 482.128 115.172C481.782 115.528 481.609 116.009 481.61 116.616L481.614 120.243L480.561 120.244L480.551 111.079L481.604 111.078L481.608 114.926C481.816 114.545 482.101 114.254 482.465 114.054C482.838 113.854 483.262 113.754 483.739 113.754ZM490.576 120.323C489.978 120.324 489.449 120.19 488.99 119.922C488.539 119.654 488.187 119.273 487.935 118.78C487.692 118.277 487.57 117.697 487.569 117.038C487.569 116.379 487.689 115.803 487.931 115.309C488.182 114.806 488.533 114.42 488.983 114.15C489.442 113.881 489.97 113.746 490.568 113.745C491.166 113.745 491.695 113.878 492.155 114.147C492.615 114.415 492.966 114.8 493.209 115.302C493.461 115.796 493.588 116.372 493.588 117.031C493.589 117.69 493.464 118.27 493.213 118.773C492.971 119.268 492.621 119.649 492.162 119.919C491.703 120.188 491.174 120.323 490.576 120.323ZM490.575 119.452C491.199 119.452 491.676 119.247 492.004 118.84C492.342 118.423 492.51 117.821 492.509 117.032C492.508 116.261 492.339 115.667 492 115.252C491.662 114.827 491.185 114.616 490.569 114.616C489.954 114.617 489.478 114.83 489.14 115.255C488.803 115.672 488.634 116.265 488.635 117.037C488.636 117.817 488.802 118.415 489.131 118.83C489.47 119.246 489.951 119.453 490.575 119.452ZM498.338 113.736C499.855 113.734 500.614 114.57 500.616 116.242L500.621 120.22L499.568 120.222L499.563 116.309C499.563 115.719 499.445 115.291 499.211 115.022C498.985 114.754 498.621 114.62 498.118 114.62C497.538 114.621 497.074 114.799 496.728 115.155C496.382 115.511 496.209 115.992 496.21 116.599L496.214 120.226L495.161 120.227L495.154 113.896L496.194 113.895L496.195 114.935C496.402 114.544 496.692 114.249 497.065 114.05C497.437 113.841 497.862 113.737 498.338 113.736ZM507.85 117.209L503.222 117.214C503.258 117.951 503.458 118.51 503.822 118.891C504.187 119.263 504.702 119.449 505.37 119.448C506.106 119.447 506.782 119.195 507.397 118.691L507.749 119.458C507.472 119.718 507.117 119.927 506.684 120.083C506.25 120.231 505.809 120.305 505.358 120.306C504.37 120.307 503.589 120.018 503.017 119.438C502.453 118.858 502.17 118.056 502.169 117.034C502.168 116.384 502.293 115.811 502.544 115.317C502.795 114.814 503.145 114.424 503.596 114.146C504.055 113.868 504.574 113.729 505.155 113.728C505.996 113.727 506.655 114.004 507.132 114.558C507.609 115.103 507.849 115.857 507.85 116.819L507.85 117.209ZM505.169 114.547C504.614 114.548 504.168 114.722 503.831 115.069C503.502 115.416 503.307 115.906 503.247 116.538L506.926 116.534C506.908 115.893 506.747 115.403 506.444 115.066C506.14 114.719 505.715 114.546 505.169 114.547Z" fill="white" fill-opacity="0.5"/>
<path d="M326.725 53.3892V53.0892L327.925 52.7892V39.9892L326.725 39.6892V39.3892H332.425V39.6892L331.225 39.9892V46.1892H335.525V39.9892L334.325 39.6892V39.3892H340.025V39.6892L338.825 39.9892V52.7892L340.025 53.0892V53.3892H334.325V53.0892L335.525 52.7892V46.6892H331.225V52.7892L332.425 53.0892V53.3892H326.725ZM340.012 53.0892L341.612 52.4892L347.112 39.1892H347.712L353.412 52.7892L354.412 53.0892V53.3892H352.012C351.319 53.3892 350.752 53.2358 350.312 52.9292C349.872 52.6092 349.545 52.1958 349.332 51.6892L348.312 49.2892H343.532L342.212 52.4892L343.712 53.0892V53.3892H340.012V53.0892ZM343.732 48.7892H348.112L345.912 43.5292L343.732 48.7892ZM353.297 39.9892L352.297 39.6892V39.3892H354.697C355.391 39.3892 355.957 39.5492 356.397 39.8692C356.837 40.1758 357.171 40.5825 357.397 41.0892L360.937 49.1492L364.197 40.2892L362.697 39.6892V39.3892H366.397V39.6892L364.797 40.2892L359.897 53.5892H359.297L353.297 39.9892ZM366.998 53.0892L368.198 52.7892V39.9892L366.998 39.6892V39.3892H377.698V42.9892H377.098C376.845 42.7892 376.625 42.5358 376.438 42.2292C376.011 41.5092 375.798 40.7292 375.798 39.8892H371.498V46.1892H373.798C373.891 45.6825 374.065 45.2092 374.318 44.7692C374.425 44.5692 374.551 44.3758 374.698 44.1892H375.298V48.6892H374.698C374.551 48.5025 374.425 48.3092 374.318 48.1092C374.065 47.6692 373.891 47.1958 373.798 46.6892H371.498V52.8892H376.198C376.198 52.0492 376.411 51.2692 376.838 50.5492C377.025 50.2425 377.245 49.9892 377.498 49.7892H378.098V53.3892H366.998V53.0892ZM384.094 53.0892L385.694 52.4892L391.194 39.1892H391.794L397.494 52.7892L398.494 53.0892V53.3892H396.094C395.401 53.3892 394.834 53.2358 394.394 52.9292C393.954 52.6092 393.627 52.1958 393.414 51.6892L392.394 49.2892H387.614L386.294 52.4892L387.794 53.0892V53.3892H384.094V53.0892ZM387.814 48.7892H392.194L389.994 43.5292L387.814 48.7892ZM400.888 42.7892V52.4892L402.488 53.0892V53.3892H398.688V53.0892L400.288 52.4892V40.0892L398.888 39.6892V39.3892H400.988C401.695 39.3892 402.248 39.5158 402.648 39.7692C403.048 40.0225 403.428 40.3625 403.788 40.7892L410.188 48.2892V40.2892L408.588 39.6892V39.3892H412.388V39.6892L410.788 40.2892V53.6892H410.188L400.888 42.7892ZM416.793 53.0892L417.993 52.7892V48.1892L413.893 39.9892L412.893 39.6892V39.3892H415.393C416.086 39.3892 416.639 39.5358 417.053 39.8292C417.479 40.1225 417.826 40.5425 418.093 41.0892L421.053 46.9892L424.093 40.2892L422.593 39.6892V39.3892H426.393V39.6892L424.793 40.2892L421.293 47.9892V52.7892L422.493 53.0892V53.3892H416.793V53.0892ZM441.199 56.7892C440.479 56.7892 439.845 56.6425 439.299 56.3492C438.752 56.0692 438.332 55.6758 438.039 55.1692C437.745 54.6758 437.599 54.1158 437.599 53.4892C436.065 53.1692 434.865 52.4025 433.999 51.1892C433.132 49.9625 432.699 48.3625 432.699 46.3892C432.699 44.8425 432.965 43.5225 433.499 42.4292C434.032 41.3358 434.785 40.5092 435.759 39.9492C436.745 39.3758 437.892 39.0892 439.199 39.0892C440.505 39.0892 441.645 39.3758 442.619 39.9492C443.605 40.5092 444.365 41.3358 444.899 42.4292C445.432 43.5225 445.699 44.8425 445.699 46.3892C445.699 48.3625 445.265 49.9625 444.399 51.1892C443.532 52.4025 442.332 53.1692 440.799 53.4892C440.799 55.2892 441.132 56.1892 441.799 56.1892C441.985 56.1892 442.132 56.1558 442.239 56.0892C442.252 56.0892 442.305 56.0558 442.399 55.9892L442.599 56.4892C442.545 56.5292 442.439 56.5825 442.279 56.6492C442.039 56.7425 441.679 56.7892 441.199 56.7892ZM439.199 53.2892C439.719 53.2892 440.199 53.0692 440.639 52.6292C441.092 52.1892 441.465 51.4558 441.759 50.4292C442.052 49.4025 442.199 48.0558 442.199 46.3892C442.199 44.7225 442.052 43.3758 441.759 42.3492C441.465 41.3225 441.092 40.5892 440.639 40.1492C440.199 39.7092 439.719 39.4892 439.199 39.4892C438.679 39.4892 438.192 39.7092 437.739 40.1492C437.299 40.5892 436.932 41.3225 436.639 42.3492C436.345 43.3758 436.199 44.7225 436.199 46.3892C436.199 48.0558 436.345 49.4025 436.639 50.4292C436.932 51.4558 437.299 52.1892 437.739 52.6292C438.192 53.0692 438.679 53.2892 439.199 53.2892ZM454.504 53.6892C452.53 53.6892 451.037 53.2292 450.024 52.3092C449.01 51.3758 448.504 50.0692 448.504 48.3892V39.9892L447.304 39.6892V39.3892H453.004V39.6892L451.804 39.9892V48.3892C451.804 50.1092 452.07 51.3425 452.604 52.0892C453.137 52.8225 453.904 53.1892 454.904 53.1892C455.517 53.1892 456.097 52.9958 456.644 52.6092C457.204 52.2092 457.65 51.6492 457.984 50.9292C458.33 50.1958 458.504 49.3492 458.504 48.3892V40.2892L456.904 39.6892V39.3892H460.704V39.6892L459.104 40.2892V48.3892C459.104 49.4692 458.904 50.4092 458.504 51.2092C458.104 52.0092 457.557 52.6225 456.864 53.0492C456.17 53.4758 455.384 53.6892 454.504 53.6892ZM461.803 53.0892L463.003 52.7892V39.9892L461.803 39.6892V39.3892H472.503V42.9892H471.903C471.649 42.7892 471.429 42.5358 471.243 42.2292C470.816 41.5092 470.603 40.7292 470.603 39.8892H466.303V46.1892H468.603C468.696 45.6825 468.869 45.2092 469.123 44.7692C469.229 44.5692 469.356 44.3758 469.503 44.1892H470.103V48.6892H469.503C469.356 48.5025 469.229 48.3092 469.123 48.1092C468.869 47.6692 468.696 47.1958 468.603 46.6892H466.303V52.8892H471.003C471.003 52.0492 471.216 51.2692 471.643 50.5492C471.829 50.2425 472.049 49.9892 472.303 49.7892H472.903V53.3892H461.803V53.0892ZM479.593 53.6892C478.647 53.6892 477.76 53.4758 476.933 53.0492C476.56 52.8625 476.247 52.6425 475.993 52.3892C475.807 52.6958 475.573 52.9692 475.293 53.2092C475.053 53.3825 474.92 53.4758 474.893 53.4892H474.393V49.6892H475.193C475.393 50.3425 475.673 50.9292 476.033 51.4492C476.847 52.6092 477.9 53.1892 479.193 53.1892C479.953 53.1892 480.56 52.9625 481.013 52.5092C481.467 52.0558 481.693 51.4492 481.693 50.6892C481.693 50.2492 481.56 49.8558 481.293 49.5092C481.04 49.1625 480.72 48.8558 480.333 48.5892C479.947 48.3225 479.407 47.9892 478.713 47.5892C477.833 47.0958 477.12 46.6492 476.573 46.2492C476.027 45.8492 475.56 45.3492 475.173 44.7492C474.787 44.1358 474.593 43.4158 474.593 42.5892C474.593 41.9358 474.773 41.3492 475.133 40.8292C475.507 40.2958 476.06 39.8758 476.793 39.5692C477.527 39.2492 478.427 39.0892 479.493 39.0892C480.267 39.0892 481.04 39.3092 481.813 39.7492C482.107 39.9092 482.4 40.1225 482.693 40.3892C482.92 40.0425 483.153 39.7692 483.393 39.5692C483.633 39.3958 483.767 39.3025 483.793 39.2892H484.293V43.0892H483.493C483.32 42.4492 483.06 41.8692 482.713 41.3492C482.393 40.8425 481.993 40.4225 481.513 40.0892C481.047 39.7558 480.507 39.5892 479.893 39.5892C479.373 39.5892 478.927 39.7958 478.553 40.2092C478.18 40.6225 477.993 41.1492 477.993 41.7892C477.993 42.2825 478.133 42.7292 478.413 43.1292C478.707 43.5158 479.06 43.8558 479.473 44.1492C479.9 44.4425 480.473 44.7958 481.193 45.2092C482.033 45.6892 482.713 46.1158 483.233 46.4892C483.753 46.8625 484.193 47.3292 484.553 47.8892C484.913 48.4358 485.093 49.0692 485.093 49.7892C485.093 50.5092 484.887 51.1692 484.473 51.7692C484.06 52.3558 483.44 52.8225 482.613 53.1692C481.787 53.5158 480.78 53.6892 479.593 53.6892ZM489.088 53.0892L490.288 52.7892V39.8892H487.988C487.988 40.7025 487.768 41.4825 487.328 42.2292C487.141 42.5358 486.928 42.7892 486.688 42.9892H486.088V39.3892H497.788V42.9892H497.188C496.935 42.7892 496.715 42.5358 496.528 42.2292C496.101 41.5092 495.888 40.7292 495.888 39.8892H493.588V52.7892L494.788 53.0892V53.3892H489.088V53.0892ZM499.283 53.3892V53.0892L500.483 52.7892V39.9892L499.283 39.6892V39.3892H504.983V39.6892L503.783 39.9892V52.7892L504.983 53.0892V53.3892H499.283ZM513.379 53.6892C512.072 53.6892 510.925 53.4092 509.939 52.8492C508.965 52.2758 508.212 51.4425 507.679 50.3492C507.145 49.2558 506.879 47.9358 506.879 46.3892C506.879 44.8425 507.145 43.5225 507.679 42.4292C508.212 41.3358 508.965 40.5092 509.939 39.9492C510.925 39.3758 512.072 39.0892 513.379 39.0892C514.685 39.0892 515.825 39.3758 516.799 39.9492C517.785 40.5092 518.545 41.3358 519.079 42.4292C519.612 43.5225 519.879 44.8425 519.879 46.3892C519.879 47.9358 519.612 49.2558 519.079 50.3492C518.545 51.4425 517.785 52.2758 516.799 52.8492C515.825 53.4092 514.685 53.6892 513.379 53.6892ZM513.379 53.2892C513.899 53.2892 514.379 53.0692 514.819 52.6292C515.272 52.1892 515.645 51.4558 515.939 50.4292C516.232 49.4025 516.379 48.0558 516.379 46.3892C516.379 44.7225 516.232 43.3758 515.939 42.3492C515.645 41.3225 515.272 40.5892 514.819 40.1492C514.379 39.7092 513.899 39.4892 513.379 39.4892C512.859 39.4892 512.372 39.7092 511.919 40.1492C511.479 40.5892 511.112 41.3225 510.819 42.3492C510.525 43.3758 510.379 44.7225 510.379 46.3892C510.379 48.0558 510.525 49.4025 510.819 50.4292C511.112 51.4558 511.479 52.1892 511.919 52.6292C512.372 53.0692 512.859 53.2892 513.379 53.2892ZM523.583 42.7892V52.4892L525.183 53.0892V53.3892H521.383V53.0892L522.983 52.4892V40.0892L521.583 39.6892V39.3892H523.683C524.39 39.3892 524.943 39.5158 525.343 39.7692C525.743 40.0225 526.123 40.3625 526.483 40.7892L532.883 48.2892V40.2892L531.283 39.6892V39.3892H535.083V39.6892L533.483 40.2892V53.6892H532.883L523.583 42.7892ZM541.488 53.6892C540.541 53.6892 539.655 53.4758 538.828 53.0492C538.455 52.8625 538.141 52.6425 537.888 52.3892C537.701 52.6958 537.468 52.9692 537.188 53.2092C536.948 53.3825 536.815 53.4758 536.788 53.4892H536.288V49.6892H537.088C537.288 50.3425 537.568 50.9292 537.928 51.4492C538.741 52.6092 539.795 53.1892 541.088 53.1892C541.848 53.1892 542.455 52.9625 542.908 52.5092C543.361 52.0558 543.588 51.4492 543.588 50.6892C543.588 50.2492 543.455 49.8558 543.188 49.5092C542.935 49.1625 542.615 48.8558 542.228 48.5892C541.841 48.3225 541.301 47.9892 540.608 47.5892C539.728 47.0958 539.015 46.6492 538.468 46.2492C537.921 45.8492 537.455 45.3492 537.068 44.7492C536.681 44.1358 536.488 43.4158 536.488 42.5892C536.488 41.9358 536.668 41.3492 537.028 40.8292C537.401 40.2958 537.955 39.8758 538.688 39.5692C539.421 39.2492 540.321 39.0892 541.388 39.0892C542.161 39.0892 542.935 39.3092 543.708 39.7492C544.001 39.9092 544.295 40.1225 544.588 40.3892C544.815 40.0425 545.048 39.7692 545.288 39.5692C545.528 39.3958 545.661 39.3025 545.688 39.2892H546.188V43.0892H545.388C545.215 42.4492 544.955 41.8692 544.608 41.3492C544.288 40.8425 543.888 40.4225 543.408 40.0892C542.941 39.7558 542.401 39.5892 541.788 39.5892C541.268 39.5892 540.821 39.7958 540.448 40.2092C540.075 40.6225 539.888 41.1492 539.888 41.7892C539.888 42.2825 540.028 42.7292 540.308 43.1292C540.601 43.5158 540.955 43.8558 541.368 44.1492C541.795 44.4425 542.368 44.7958 543.088 45.2092C543.928 45.6892 544.608 46.1158 545.128 46.4892C545.648 46.8625 546.088 47.3292 546.448 47.8892C546.808 48.4358 546.988 49.0692 546.988 49.7892C546.988 50.5092 546.781 51.1692 546.368 51.7692C545.955 52.3558 545.335 52.8225 544.508 53.1692C543.681 53.5158 542.675 53.6892 541.488 53.6892ZM551.982 47.1892C552.796 46.8692 553.416 46.4025 553.842 45.7892C554.269 45.1758 554.482 44.3092 554.482 43.1892C554.482 41.9092 554.249 40.9892 553.782 40.4292C553.329 39.8692 552.629 39.5892 551.682 39.5892C551.296 39.5892 550.902 39.6425 550.502 39.7492L550.082 39.8892V43.0892L549.822 43.1492C549.609 43.1758 549.429 43.1892 549.282 43.1892C548.829 43.1892 548.462 43.0558 548.182 42.7892C547.916 42.5092 547.782 42.1425 547.782 41.6892C547.782 41.2625 547.942 40.8492 548.262 40.4492C548.596 40.0492 549.082 39.7225 549.722 39.4692C550.376 39.2158 551.162 39.0892 552.082 39.0892C554.029 39.0892 555.496 39.4692 556.482 40.2292C557.482 40.9892 557.982 41.9758 557.982 43.1892C557.982 44.3225 557.562 45.2625 556.722 46.0092C555.896 46.7558 554.649 47.2492 552.982 47.4892L552.882 49.0892H552.082L551.982 47.1892ZM552.382 53.5892C551.982 53.5892 551.629 53.4358 551.322 53.1292C551.029 52.8092 550.882 52.4292 550.882 51.9892C550.882 51.5492 551.029 51.1758 551.322 50.8692C551.629 50.5492 551.982 50.3892 552.382 50.3892C552.782 50.3892 553.129 50.5492 553.422 50.8692C553.729 51.1758 553.882 51.5492 553.882 51.9892C553.882 52.4292 553.729 52.8092 553.422 53.1292C553.129 53.4358 552.782 53.5892 552.382 53.5892Z" fill="white"/>
<rect x="299.389" y="292.453" width="18" height="18" rx="1" fill="#E3B873"/>
<path d="M313.236 297.991L307.524 303.703L304.928 301.106" stroke="white" stroke-width="1.5"/>
<path d="M327.227 298.344H328.375V308.214H327.227V298.344ZM337.022 301.228C337.89 301.228 338.534 301.452 338.954 301.9C339.384 302.339 339.598 303.011 339.598 303.916V308.214H338.492V307.052C338.315 307.454 338.044 307.766 337.68 307.99C337.316 308.205 336.896 308.312 336.42 308.312C335.982 308.312 335.576 308.224 335.202 308.046C334.838 307.869 334.549 307.622 334.334 307.304C334.12 306.987 334.012 306.637 334.012 306.254C334.012 305.741 334.143 305.344 334.404 305.064C334.666 304.775 335.095 304.57 335.692 304.448C336.29 304.318 337.12 304.252 338.184 304.252H338.492V303.79C338.492 303.221 338.376 302.81 338.142 302.558C337.909 302.297 337.531 302.166 337.008 302.166C336.224 302.166 335.445 302.409 334.67 302.894L334.292 302.068C334.647 301.816 335.072 301.616 335.566 301.466C336.07 301.308 336.556 301.228 337.022 301.228ZM336.574 307.416C337.134 307.416 337.592 307.23 337.946 306.856C338.31 306.474 338.492 305.984 338.492 305.386V304.98H338.24C337.419 304.98 336.794 305.018 336.364 305.092C335.935 305.158 335.627 305.274 335.44 305.442C335.263 305.601 335.174 305.839 335.174 306.156C335.174 306.52 335.305 306.824 335.566 307.066C335.837 307.3 336.173 307.416 336.574 307.416ZM347.778 301.396V307.752C347.778 308.77 347.517 309.535 346.994 310.048C346.472 310.571 345.697 310.832 344.67 310.832C343.476 310.832 342.472 310.524 341.66 309.908L342.038 309.068C342.496 309.367 342.925 309.582 343.326 309.712C343.728 309.843 344.176 309.908 344.67 309.908C345.324 309.908 345.818 309.731 346.154 309.376C346.49 309.031 346.658 308.522 346.658 307.85V306.646C346.462 307.085 346.159 307.421 345.748 307.654C345.347 307.888 344.871 308.004 344.32 308.004C343.723 308.004 343.191 307.864 342.724 307.584C342.267 307.304 341.908 306.908 341.646 306.394C341.394 305.881 341.268 305.288 341.268 304.616C341.268 303.944 341.394 303.352 341.646 302.838C341.908 302.325 342.267 301.928 342.724 301.648C343.191 301.368 343.723 301.228 344.32 301.228C344.862 301.228 345.333 301.345 345.734 301.578C346.136 301.812 346.439 302.143 346.644 302.572V301.396H347.778ZM344.544 307.066C345.198 307.066 345.711 306.852 346.084 306.422C346.458 305.984 346.644 305.382 346.644 304.616C346.644 303.86 346.458 303.268 346.084 302.838C345.72 302.4 345.207 302.18 344.544 302.18C343.882 302.18 343.359 302.4 342.976 302.838C342.603 303.268 342.416 303.86 342.416 304.616C342.416 305.382 342.603 305.984 342.976 306.422C343.359 306.852 343.882 307.066 344.544 307.066ZM353.741 302.208L352.999 302.278C352.299 302.344 351.791 302.563 351.473 302.936C351.165 303.31 351.011 303.772 351.011 304.322V308.214H349.877V301.396H350.983V302.586C351.366 301.793 352.117 301.35 353.237 301.256L353.643 301.228L353.741 302.208ZM360.388 304.98H355.404C355.442 305.774 355.656 306.376 356.048 306.786C356.44 307.188 356.996 307.388 357.714 307.388C358.508 307.388 359.236 307.118 359.898 306.576L360.276 307.402C359.978 307.682 359.595 307.906 359.128 308.074C358.662 308.233 358.186 308.312 357.7 308.312C356.636 308.312 355.796 308 355.18 307.374C354.574 306.749 354.27 305.886 354.27 304.784C354.27 304.084 354.406 303.468 354.676 302.936C354.947 302.395 355.325 301.975 355.81 301.676C356.305 301.378 356.865 301.228 357.49 301.228C358.396 301.228 359.105 301.527 359.618 302.124C360.132 302.712 360.388 303.524 360.388 304.56V304.98ZM357.504 302.11C356.907 302.11 356.426 302.297 356.062 302.67C355.708 303.044 355.498 303.571 355.432 304.252H359.394C359.376 303.562 359.203 303.034 358.876 302.67C358.55 302.297 358.092 302.11 357.504 302.11ZM367.771 304.98H362.787C362.824 305.774 363.039 306.376 363.431 306.786C363.823 307.188 364.378 307.388 365.097 307.388C365.89 307.388 366.618 307.118 367.281 306.576L367.659 307.402C367.36 307.682 366.978 307.906 366.511 308.074C366.044 308.233 365.568 308.312 365.083 308.312C364.019 308.312 363.179 308 362.563 307.374C361.956 306.749 361.653 305.886 361.653 304.784C361.653 304.084 361.788 303.468 362.059 302.936C362.33 302.395 362.708 301.975 363.193 301.676C363.688 301.378 364.248 301.228 364.873 301.228C365.778 301.228 366.488 301.527 367.001 302.124C367.514 302.712 367.771 303.524 367.771 304.56V304.98ZM364.887 302.11C364.29 302.11 363.809 302.297 363.445 302.67C363.09 303.044 362.88 303.571 362.815 304.252H366.777C366.758 303.562 366.586 303.034 366.259 302.67C365.932 302.297 365.475 302.11 364.887 302.11ZM376.047 307.402C376.253 307.402 376.458 307.388 376.663 307.36L376.607 308.256C376.393 308.294 376.159 308.312 375.907 308.312C375.086 308.312 374.465 308.098 374.045 307.668C373.635 307.239 373.429 306.642 373.429 305.876V302.292H372.099V301.396H373.429V299.324H374.563V301.396H376.495V302.292H374.563V305.792C374.563 306.866 375.058 307.402 376.047 307.402ZM380.637 308.312C379.993 308.312 379.424 308.168 378.929 307.878C378.444 307.589 378.066 307.178 377.795 306.646C377.534 306.105 377.403 305.48 377.403 304.77C377.403 304.061 377.534 303.44 377.795 302.908C378.066 302.367 378.444 301.952 378.929 301.662C379.424 301.373 379.993 301.228 380.637 301.228C381.281 301.228 381.85 301.373 382.345 301.662C382.84 301.952 383.218 302.367 383.479 302.908C383.75 303.44 383.885 304.061 383.885 304.77C383.885 305.48 383.75 306.105 383.479 306.646C383.218 307.178 382.84 307.589 382.345 307.878C381.85 308.168 381.281 308.312 380.637 308.312ZM380.637 307.374C381.309 307.374 381.822 307.155 382.177 306.716C382.541 306.268 382.723 305.62 382.723 304.77C382.723 303.94 382.541 303.3 382.177 302.852C381.813 302.395 381.3 302.166 380.637 302.166C379.974 302.166 379.461 302.395 379.097 302.852C378.733 303.3 378.551 303.94 378.551 304.77C378.551 305.61 378.728 306.254 379.083 306.702C379.447 307.15 379.965 307.374 380.637 307.374ZM392.18 307.402C392.385 307.402 392.591 307.388 392.796 307.36L392.74 308.256C392.525 308.294 392.292 308.312 392.04 308.312C391.219 308.312 390.598 308.098 390.178 307.668C389.767 307.239 389.562 306.642 389.562 305.876V302.292H388.232V301.396H389.562V299.324H390.696V301.396H392.628V302.292H390.696V305.792C390.696 306.866 391.191 307.402 392.18 307.402ZM397.372 301.228C399.005 301.228 399.822 302.129 399.822 303.93V308.214H398.688V304C398.688 303.366 398.562 302.904 398.31 302.614C398.067 302.325 397.675 302.18 397.134 302.18C396.508 302.18 396.009 302.372 395.636 302.754C395.262 303.137 395.076 303.655 395.076 304.308V308.214H393.942V298.344H395.076V302.488C395.3 302.078 395.608 301.765 396 301.55C396.401 301.336 396.858 301.228 397.372 301.228ZM407.611 304.98H402.627C402.664 305.774 402.879 306.376 403.271 306.786C403.663 307.188 404.218 307.388 404.937 307.388C405.73 307.388 406.458 307.118 407.121 306.576L407.499 307.402C407.2 307.682 406.818 307.906 406.351 308.074C405.884 308.233 405.408 308.312 404.923 308.312C403.859 308.312 403.019 308 402.403 307.374C401.796 306.749 401.493 305.886 401.493 304.784C401.493 304.084 401.628 303.468 401.899 302.936C402.17 302.395 402.548 301.975 403.033 301.676C403.528 301.378 404.088 301.228 404.713 301.228C405.618 301.228 406.328 301.527 406.841 302.124C407.354 302.712 407.611 303.524 407.611 304.56V304.98ZM404.727 302.11C404.13 302.11 403.649 302.297 403.285 302.67C402.93 303.044 402.72 303.571 402.655 304.252H406.617C406.598 303.562 406.426 303.034 406.099 302.67C405.772 302.297 405.315 302.11 404.727 302.11ZM416.321 301.228C416.918 301.228 417.446 301.378 417.903 301.676C418.36 301.975 418.715 302.395 418.967 302.936C419.219 303.468 419.345 304.089 419.345 304.798C419.345 305.508 419.219 306.128 418.967 306.66C418.715 307.183 418.36 307.589 417.903 307.878C417.455 308.168 416.928 308.312 416.321 308.312C415.789 308.312 415.322 308.196 414.921 307.962C414.529 307.729 414.23 307.398 414.025 306.968V310.734H412.891V301.396H414.025V302.572C414.23 302.143 414.529 301.812 414.921 301.578C415.322 301.345 415.789 301.228 416.321 301.228ZM416.097 307.374C416.76 307.374 417.273 307.15 417.637 306.702C418.001 306.254 418.183 305.62 418.183 304.798C418.183 303.977 418.001 303.338 417.637 302.88C417.273 302.414 416.76 302.18 416.097 302.18C415.434 302.18 414.921 302.404 414.557 302.852C414.202 303.3 414.025 303.94 414.025 304.77C414.025 305.601 414.202 306.245 414.557 306.702C414.921 307.15 415.434 307.374 416.097 307.374ZM424.903 302.208L424.161 302.278C423.461 302.344 422.953 302.563 422.635 302.936C422.327 303.31 422.173 303.772 422.173 304.322V308.214H421.039V301.396H422.145V302.586C422.528 301.793 423.279 301.35 424.399 301.256L424.805 301.228L424.903 302.208ZM428.666 308.312C428.022 308.312 427.453 308.168 426.958 307.878C426.473 307.589 426.095 307.178 425.824 306.646C425.563 306.105 425.432 305.48 425.432 304.77C425.432 304.061 425.563 303.44 425.824 302.908C426.095 302.367 426.473 301.952 426.958 301.662C427.453 301.373 428.022 301.228 428.666 301.228C429.31 301.228 429.88 301.373 430.374 301.662C430.869 301.952 431.247 302.367 431.508 302.908C431.779 303.44 431.914 304.061 431.914 304.77C431.914 305.48 431.779 306.105 431.508 306.646C431.247 307.178 430.869 307.589 430.374 307.878C429.88 308.168 429.31 308.312 428.666 308.312ZM428.666 307.374C429.338 307.374 429.852 307.155 430.206 306.716C430.57 306.268 430.752 305.62 430.752 304.77C430.752 303.94 430.57 303.3 430.206 302.852C429.842 302.395 429.329 302.166 428.666 302.166C428.004 302.166 427.49 302.395 427.126 302.852C426.762 303.3 426.58 303.94 426.58 304.77C426.58 305.61 426.758 306.254 427.112 306.702C427.476 307.15 427.994 307.374 428.666 307.374ZM436.488 308.312C435.816 308.312 435.233 308.168 434.738 307.878C434.243 307.589 433.861 307.183 433.59 306.66C433.329 306.128 433.198 305.508 433.198 304.798C433.198 304.089 433.333 303.468 433.604 302.936C433.884 302.395 434.271 301.975 434.766 301.676C435.27 301.378 435.858 301.228 436.53 301.228C436.987 301.228 437.435 301.312 437.874 301.48C438.313 301.639 438.667 301.854 438.938 302.124L438.56 302.964C437.916 302.442 437.263 302.18 436.6 302.18C435.9 302.18 435.354 302.409 434.962 302.866C434.57 303.324 434.374 303.968 434.374 304.798C434.374 305.62 434.57 306.254 434.962 306.702C435.354 307.15 435.9 307.374 436.6 307.374C437.263 307.374 437.916 307.113 438.56 306.59L438.938 307.43C438.649 307.701 438.285 307.916 437.846 308.074C437.407 308.233 436.955 308.312 436.488 308.312ZM446.015 304.98H441.031C441.068 305.774 441.283 306.376 441.675 306.786C442.067 307.188 442.622 307.388 443.341 307.388C444.134 307.388 444.862 307.118 445.525 306.576L445.903 307.402C445.604 307.682 445.222 307.906 444.755 308.074C444.288 308.233 443.812 308.312 443.327 308.312C442.263 308.312 441.423 308 440.807 307.374C440.2 306.749 439.897 305.886 439.897 304.784C439.897 304.084 440.032 303.468 440.303 302.936C440.574 302.395 440.952 301.975 441.437 301.676C441.932 301.378 442.492 301.228 443.117 301.228C444.022 301.228 444.732 301.527 445.245 302.124C445.758 302.712 446.015 303.524 446.015 304.56V304.98ZM443.131 302.11C442.534 302.11 442.053 302.297 441.689 302.67C441.334 303.044 441.124 303.571 441.059 304.252H445.021C445.002 303.562 444.83 303.034 444.503 302.67C444.176 302.297 443.719 302.11 443.131 302.11ZM449.996 308.312C448.848 308.312 447.938 308.018 447.266 307.43L447.644 306.59C448.008 306.88 448.377 307.09 448.75 307.22C449.133 307.342 449.562 307.402 450.038 307.402C450.542 307.402 450.925 307.318 451.186 307.15C451.457 306.973 451.592 306.721 451.592 306.394C451.592 306.124 451.503 305.909 451.326 305.75C451.149 305.592 450.855 305.466 450.444 305.372L449.296 305.106C448.717 304.976 448.274 304.752 447.966 304.434C447.658 304.117 447.504 303.725 447.504 303.258C447.504 302.652 447.742 302.162 448.218 301.788C448.694 301.415 449.329 301.228 450.122 301.228C450.598 301.228 451.051 301.308 451.48 301.466C451.909 301.616 452.269 301.835 452.558 302.124L452.18 302.95C451.555 302.418 450.869 302.152 450.122 302.152C449.646 302.152 449.273 302.246 449.002 302.432C448.741 302.61 448.61 302.862 448.61 303.188C448.61 303.459 448.689 303.678 448.848 303.846C449.016 304.005 449.282 304.126 449.646 304.21L450.808 304.49C451.443 304.64 451.914 304.868 452.222 305.176C452.53 305.475 452.684 305.867 452.684 306.352C452.684 306.95 452.441 307.426 451.956 307.78C451.48 308.135 450.827 308.312 449.996 308.312ZM456.723 308.312C455.575 308.312 454.665 308.018 453.993 307.43L454.371 306.59C454.735 306.88 455.103 307.09 455.477 307.22C455.859 307.342 456.289 307.402 456.765 307.402C457.269 307.402 457.651 307.318 457.913 307.15C458.183 306.973 458.319 306.721 458.319 306.394C458.319 306.124 458.23 305.909 458.053 305.75C457.875 305.592 457.581 305.466 457.171 305.372L456.023 305.106C455.444 304.976 455.001 304.752 454.693 304.434C454.385 304.117 454.231 303.725 454.231 303.258C454.231 302.652 454.469 302.162 454.945 301.788C455.421 301.415 456.055 301.228 456.849 301.228C457.325 301.228 457.777 301.308 458.207 301.466C458.636 301.616 458.995 301.835 459.285 302.124L458.907 302.95C458.281 302.418 457.595 302.152 456.849 302.152C456.373 302.152 455.999 302.246 455.729 302.432C455.467 302.61 455.337 302.862 455.337 303.188C455.337 303.459 455.416 303.678 455.575 303.846C455.743 304.005 456.009 304.126 456.373 304.21L457.535 304.49C458.169 304.64 458.641 304.868 458.949 305.176C459.257 305.475 459.411 305.867 459.411 306.352C459.411 306.95 459.168 307.426 458.683 307.78C458.207 308.135 457.553 308.312 456.723 308.312ZM461.139 301.396H462.273V308.214H461.139V301.396ZM462.399 298.442V299.716H461.027V298.442H462.399ZM467.823 301.228C469.456 301.228 470.273 302.129 470.273 303.93V308.214H469.139V304C469.139 303.366 469.013 302.904 468.761 302.614C468.518 302.325 468.126 302.18 467.585 302.18C466.96 302.18 466.46 302.372 466.087 302.754C465.714 303.137 465.527 303.655 465.527 304.308V308.214H464.393V301.396H465.513V302.516C465.737 302.096 466.05 301.779 466.451 301.564C466.852 301.34 467.31 301.228 467.823 301.228ZM478.454 301.396V307.752C478.454 308.77 478.193 309.535 477.67 310.048C477.147 310.571 476.373 310.832 475.346 310.832C474.151 310.832 473.148 310.524 472.336 309.908L472.714 309.068C473.171 309.367 473.601 309.582 474.002 309.712C474.403 309.843 474.851 309.908 475.346 309.908C475.999 309.908 476.494 309.731 476.83 309.376C477.166 309.031 477.334 308.522 477.334 307.85V306.646C477.138 307.085 476.835 307.421 476.424 307.654C476.023 307.888 475.547 308.004 474.996 308.004C474.399 308.004 473.867 307.864 473.4 307.584C472.943 307.304 472.583 306.908 472.322 306.394C472.07 305.881 471.944 305.288 471.944 304.616C471.944 303.944 472.07 303.352 472.322 302.838C472.583 302.325 472.943 301.928 473.4 301.648C473.867 301.368 474.399 301.228 474.996 301.228C475.537 301.228 476.009 301.345 476.41 301.578C476.811 301.812 477.115 302.143 477.32 302.572V301.396H478.454ZM475.22 307.066C475.873 307.066 476.387 306.852 476.76 306.422C477.133 305.984 477.32 305.382 477.32 304.616C477.32 303.86 477.133 303.268 476.76 302.838C476.396 302.4 475.883 302.18 475.22 302.18C474.557 302.18 474.035 302.4 473.652 302.838C473.279 303.268 473.092 303.86 473.092 304.616C473.092 305.382 473.279 305.984 473.652 306.422C474.035 306.852 474.557 307.066 475.22 307.066ZM486.991 308.312C486.347 308.312 485.777 308.168 485.283 307.878C484.797 307.589 484.419 307.178 484.149 306.646C483.887 306.105 483.757 305.48 483.757 304.77C483.757 304.061 483.887 303.44 484.149 302.908C484.419 302.367 484.797 301.952 485.283 301.662C485.777 301.373 486.347 301.228 486.991 301.228C487.635 301.228 488.204 301.373 488.699 301.662C489.193 301.952 489.571 302.367 489.833 302.908C490.103 303.44 490.239 304.061 490.239 304.77C490.239 305.48 490.103 306.105 489.833 306.646C489.571 307.178 489.193 307.589 488.699 307.878C488.204 308.168 487.635 308.312 486.991 308.312ZM486.991 307.374C487.663 307.374 488.176 307.155 488.531 306.716C488.895 306.268 489.077 305.62 489.077 304.77C489.077 303.94 488.895 303.3 488.531 302.852C488.167 302.395 487.653 302.166 486.991 302.166C486.328 302.166 485.815 302.395 485.451 302.852C485.087 303.3 484.905 303.94 484.905 304.77C484.905 305.61 485.082 306.254 485.437 306.702C485.801 307.15 486.319 307.374 486.991 307.374ZM493.426 301.396H495.358V302.292H493.426V308.214H492.292V302.292H490.962V301.396H492.292V301.172C492.292 300.267 492.516 299.581 492.964 299.114C493.422 298.648 494.122 298.386 495.064 298.33L495.624 298.302L495.708 299.184L495.064 299.226C494.495 299.264 494.08 299.427 493.818 299.716C493.557 299.996 493.426 300.43 493.426 301.018V301.396ZM503.548 301.228C504.145 301.228 504.672 301.378 505.13 301.676C505.587 301.975 505.942 302.395 506.194 302.936C506.446 303.468 506.572 304.089 506.572 304.798C506.572 305.508 506.446 306.128 506.194 306.66C505.942 307.183 505.587 307.589 505.13 307.878C504.682 308.168 504.154 308.312 503.548 308.312C503.016 308.312 502.549 308.196 502.148 307.962C501.756 307.729 501.457 307.398 501.252 306.968V310.734H500.118V301.396H501.252V302.572C501.457 302.143 501.756 301.812 502.148 301.578C502.549 301.345 503.016 301.228 503.548 301.228ZM503.324 307.374C503.986 307.374 504.5 307.15 504.864 306.702C505.228 306.254 505.41 305.62 505.41 304.798C505.41 303.977 505.228 303.338 504.864 302.88C504.5 302.414 503.986 302.18 503.324 302.18C502.661 302.18 502.148 302.404 501.784 302.852C501.429 303.3 501.252 303.94 501.252 304.77C501.252 305.601 501.429 306.245 501.784 306.702C502.148 307.15 502.661 307.374 503.324 307.374ZM513.978 304.98H508.994C509.031 305.774 509.246 306.376 509.638 306.786C510.03 307.188 510.585 307.388 511.304 307.388C512.097 307.388 512.825 307.118 513.488 306.576L513.866 307.402C513.567 307.682 513.185 307.906 512.718 308.074C512.251 308.233 511.775 308.312 511.29 308.312C510.226 308.312 509.386 308 508.77 307.374C508.163 306.749 507.86 305.886 507.86 304.784C507.86 304.084 507.995 303.468 508.266 302.936C508.537 302.395 508.915 301.975 509.4 301.676C509.895 301.378 510.455 301.228 511.08 301.228C511.985 301.228 512.695 301.527 513.208 302.124C513.721 302.712 513.978 303.524 513.978 304.56V304.98ZM511.094 302.11C510.497 302.11 510.016 302.297 509.652 302.67C509.297 303.044 509.087 303.571 509.022 304.252H512.984C512.965 303.562 512.793 303.034 512.466 302.67C512.139 302.297 511.682 302.11 511.094 302.11ZM519.513 302.208L518.771 302.278C518.071 302.344 517.562 302.563 517.245 302.936C516.937 303.31 516.783 303.772 516.783 304.322V308.214H515.649V301.396H516.755V302.586C517.138 301.793 517.889 301.35 519.009 301.256L519.415 301.228L519.513 302.208ZM522.826 308.312C521.678 308.312 520.768 308.018 520.096 307.43L520.474 306.59C520.838 306.88 521.207 307.09 521.58 307.22C521.963 307.342 522.392 307.402 522.868 307.402C523.372 307.402 523.755 307.318 524.016 307.15C524.287 306.973 524.422 306.721 524.422 306.394C524.422 306.124 524.333 305.909 524.156 305.75C523.979 305.592 523.685 305.466 523.274 305.372L522.126 305.106C521.547 304.976 521.104 304.752 520.796 304.434C520.488 304.117 520.334 303.725 520.334 303.258C520.334 302.652 520.572 302.162 521.048 301.788C521.524 301.415 522.159 301.228 522.952 301.228C523.428 301.228 523.881 301.308 524.31 301.466C524.739 301.616 525.099 301.835 525.388 302.124L525.01 302.95C524.385 302.418 523.699 302.152 522.952 302.152C522.476 302.152 522.103 302.246 521.832 302.432C521.571 302.61 521.44 302.862 521.44 303.188C521.44 303.459 521.519 303.678 521.678 303.846C521.846 304.005 522.112 304.126 522.476 304.21L523.638 304.49C524.273 304.64 524.744 304.868 525.052 305.176C525.36 305.475 525.514 305.867 525.514 306.352C525.514 306.95 525.271 307.426 524.786 307.78C524.31 308.135 523.657 308.312 522.826 308.312ZM530.071 308.312C529.427 308.312 528.857 308.168 528.363 307.878C527.877 307.589 527.499 307.178 527.229 306.646C526.967 306.105 526.837 305.48 526.837 304.77C526.837 304.061 526.967 303.44 527.229 302.908C527.499 302.367 527.877 301.952 528.363 301.662C528.857 301.373 529.427 301.228 530.071 301.228C530.715 301.228 531.284 301.373 531.779 301.662C532.273 301.952 532.651 302.367 532.913 302.908C533.183 303.44 533.319 304.061 533.319 304.77C533.319 305.48 533.183 306.105 532.913 306.646C532.651 307.178 532.273 307.589 531.779 307.878C531.284 308.168 530.715 308.312 530.071 308.312ZM530.071 307.374C530.743 307.374 531.256 307.155 531.611 306.716C531.975 306.268 532.157 305.62 532.157 304.77C532.157 303.94 531.975 303.3 531.611 302.852C531.247 302.395 530.733 302.166 530.071 302.166C529.408 302.166 528.895 302.395 528.531 302.852C528.167 303.3 527.985 303.94 527.985 304.77C527.985 305.61 528.162 306.254 528.517 306.702C528.881 307.15 529.399 307.374 530.071 307.374ZM538.438 301.228C540.072 301.228 540.888 302.129 540.888 303.93V308.214H539.754V304C539.754 303.366 539.628 302.904 539.376 302.614C539.134 302.325 538.742 302.18 538.2 302.18C537.575 302.18 537.076 302.372 536.702 302.754C536.329 303.137 536.142 303.655 536.142 304.308V308.214H535.008V301.396H536.128V302.516C536.352 302.096 536.665 301.779 537.066 301.564C537.468 301.34 537.925 301.228 538.438 301.228ZM545.737 301.228C546.605 301.228 547.249 301.452 547.669 301.9C548.099 302.339 548.313 303.011 548.313 303.916V308.214H547.207V307.052C547.03 307.454 546.759 307.766 546.395 307.99C546.031 308.205 545.611 308.312 545.135 308.312C544.697 308.312 544.291 308.224 543.917 308.046C543.553 307.869 543.264 307.622 543.049 307.304C542.835 306.987 542.727 306.637 542.727 306.254C542.727 305.741 542.858 305.344 543.119 305.064C543.381 304.775 543.81 304.57 544.407 304.448C545.005 304.318 545.835 304.252 546.899 304.252H547.207V303.79C547.207 303.221 547.091 302.81 546.857 302.558C546.624 302.297 546.246 302.166 545.723 302.166C544.939 302.166 544.16 302.409 543.385 302.894L543.007 302.068C543.362 301.816 543.787 301.616 544.281 301.466C544.785 301.308 545.271 301.228 545.737 301.228ZM545.289 307.416C545.849 307.416 546.307 307.23 546.661 306.856C547.025 306.474 547.207 305.984 547.207 305.386V304.98H546.955C546.134 304.98 545.509 305.018 545.079 305.092C544.65 305.158 544.342 305.274 544.155 305.442C543.978 305.601 543.889 305.839 543.889 306.156C543.889 306.52 544.02 306.824 544.281 307.066C544.552 307.3 544.888 307.416 545.289 307.416ZM550.389 298.344H551.523V308.214H550.389V298.344ZM563.3 298.344V308.214H562.166V306.968C561.961 307.398 561.658 307.729 561.256 307.962C560.864 308.196 560.402 308.312 559.87 308.312C559.273 308.312 558.746 308.163 558.288 307.864C557.831 307.566 557.476 307.15 557.224 306.618C556.972 306.077 556.846 305.452 556.846 304.742C556.846 304.042 556.972 303.426 557.224 302.894C557.476 302.362 557.831 301.952 558.288 301.662C558.746 301.373 559.273 301.228 559.87 301.228C560.402 301.228 560.864 301.345 561.256 301.578C561.658 301.812 561.961 302.143 562.166 302.572V298.344H563.3ZM560.094 307.374C560.757 307.374 561.266 307.15 561.62 306.702C561.984 306.245 562.166 305.601 562.166 304.77C562.166 303.94 561.984 303.3 561.62 302.852C561.266 302.404 560.757 302.18 560.094 302.18C559.432 302.18 558.914 302.404 558.54 302.852C558.176 303.3 557.994 303.93 557.994 304.742C557.994 305.573 558.176 306.222 558.54 306.688C558.914 307.146 559.432 307.374 560.094 307.374ZM568.173 301.228C569.041 301.228 569.685 301.452 570.105 301.9C570.534 302.339 570.749 303.011 570.749 303.916V308.214H569.643V307.052C569.465 307.454 569.195 307.766 568.831 307.99C568.467 308.205 568.047 308.312 567.571 308.312C567.132 308.312 566.726 308.224 566.353 308.046C565.989 307.869 565.699 307.622 565.485 307.304C565.27 306.987 565.163 306.637 565.163 306.254C565.163 305.741 565.293 305.344 565.555 305.064C565.816 304.775 566.245 304.57 566.843 304.448C567.44 304.318 568.271 304.252 569.335 304.252H569.643V303.79C569.643 303.221 569.526 302.81 569.293 302.558C569.059 302.297 568.681 302.166 568.159 302.166C567.375 302.166 566.595 302.409 565.821 302.894L565.443 302.068C565.797 301.816 566.222 301.616 566.717 301.466C567.221 301.308 567.706 301.228 568.173 301.228ZM567.725 307.416C568.285 307.416 568.742 307.23 569.097 306.856C569.461 306.474 569.643 305.984 569.643 305.386V304.98H569.391C568.569 304.98 567.944 305.018 567.515 305.092C567.085 305.158 566.777 305.274 566.591 305.442C566.413 305.601 566.325 305.839 566.325 306.156C566.325 306.52 566.455 306.824 566.717 307.066C566.987 307.3 567.323 307.416 567.725 307.416ZM575.821 307.402C576.026 307.402 576.231 307.388 576.437 307.36L576.381 308.256C576.166 308.294 575.933 308.312 575.681 308.312C574.859 308.312 574.239 308.098 573.819 307.668C573.408 307.239 573.203 306.642 573.203 305.876V302.292H571.873V301.396H573.203V299.324H574.337V301.396H576.269V302.292H574.337V305.792C574.337 306.866 574.831 307.402 575.821 307.402ZM580.354 301.228C581.222 301.228 581.866 301.452 582.286 301.9C582.716 302.339 582.93 303.011 582.93 303.916V308.214H581.824V307.052C581.647 307.454 581.376 307.766 581.012 307.99C580.648 308.205 580.228 308.312 579.752 308.312C579.314 308.312 578.908 308.224 578.534 308.046C578.17 307.869 577.881 307.622 577.666 307.304C577.452 306.987 577.344 306.637 577.344 306.254C577.344 305.741 577.475 305.344 577.736 305.064C577.998 304.775 578.427 304.57 579.024 304.448C579.622 304.318 580.452 304.252 581.516 304.252H581.824V303.79C581.824 303.221 581.708 302.81 581.474 302.558C581.241 302.297 580.863 302.166 580.34 302.166C579.556 302.166 578.777 302.409 578.002 302.894L577.624 302.068C577.979 301.816 578.404 301.616 578.898 301.466C579.402 301.308 579.888 301.228 580.354 301.228ZM579.906 307.416C580.466 307.416 580.924 307.23 581.278 306.856C581.642 306.474 581.824 305.984 581.824 305.386V304.98H581.572C580.751 304.98 580.126 305.018 579.696 305.092C579.267 305.158 578.959 305.274 578.772 305.442C578.595 305.601 578.506 305.839 578.506 306.156C578.506 306.52 578.637 306.824 578.898 307.066C579.169 307.3 579.505 307.416 579.906 307.416Z" fill="white"/>
</g>
<defs>
<filter id="filter0_d_1_14033" x="322.199" y="345.905" width="240" height="91" filterUnits="userSpaceOnUse" color-interpolation-filters="sRGB">
<feFlood flood-opacity="0" result="BackgroundImageFix"/>
<feColorMatrix in="SourceAlpha" type="matrix" values="0 0 0 0 0 0 0 0 0 0 0 0 0 0 0 0 0 0 127 0" result="hardAlpha"/>
<feOffset dy="5"/>
<feGaussianBlur stdDeviation="10"/>
<feColorMatrix type="matrix" values="0 0 0 0 0.890196 0 0 0 0 0.721569 0 0 0 0 0.45098 0 0 0 0.1 0"/>
<feBlend mode="normal" in2="BackgroundImageFix" result="effect1_dropShadow_1_14033"/>
<feBlend mode="normal" in="SourceGraphic" in2="effect1_dropShadow_1_14033" result="shape"/>
</filter>
</defs>
</svg>
